<svg id="wrixy_logo_big" version="1.1" xmlns="http://www.w3.org/2000/svg" xmlns:xlink="http://www.w3.org/1999/xlink" width="400" height="111.11111111111111" viewBox="0, 0, 400,111.11111111111111"><g id="svgg"><path id="path0" d="M25.417 12.860 C 25.050 12.946,24.544 13.058,24.292 13.110 C 24.040 13.162,23.833 13.271,23.833 13.352 C 23.833 13.434,23.688 13.500,23.510 13.500 C 23.332 13.500,23.139 13.576,23.082 13.669 C 23.024 13.763,22.907 13.796,22.822 13.743 C 22.736 13.690,22.667 13.726,22.667 13.823 C 22.667 13.921,22.554 14.000,22.417 14.000 C 22.279 14.000,22.167 14.075,22.167 14.167 C 22.167 14.258,22.072 14.333,21.957 14.333 C 21.841 14.333,21.544 14.521,21.297 14.750 C 21.050 14.979,20.787 15.167,20.713 15.167 C 20.539 15.167,19.013 16.624,19.098 16.709 C 19.133 16.744,18.901 17.059,18.581 17.408 C 18.261 17.756,18.000 18.127,18.000 18.231 C 18.000 18.335,17.857 18.509,17.682 18.619 C 17.507 18.728,17.313 19.045,17.252 19.323 C 17.191 19.602,17.072 19.872,16.987 19.925 C 16.903 19.977,16.833 20.165,16.833 20.343 C 16.833 20.521,16.761 20.667,16.672 20.667 C 16.584 20.667,16.462 21.043,16.400 21.504 C 16.339 21.964,16.224 22.381,16.145 22.430 C 15.956 22.547,15.955 28.167,16.144 28.167 C 16.223 28.167,16.336 28.520,16.396 28.952 C 16.510 29.788,16.837 30.667,17.033 30.667 C 17.098 30.667,17.201 30.929,17.261 31.250 C 17.321 31.571,17.425 31.833,17.492 31.833 C 17.559 31.833,17.757 32.104,17.932 32.436 C 18.316 33.163,20.746 35.667,21.068 35.667 C 21.195 35.667,21.341 35.779,21.394 35.917 C 21.446 36.054,21.624 36.167,21.788 36.167 C 21.952 36.167,22.180 36.317,22.295 36.500 C 22.409 36.683,22.585 36.833,22.685 36.833 C 22.863 36.833,23.800 37.211,24.376 37.516 C 24.537 37.601,25.231 37.719,25.918 37.777 C 26.605 37.835,27.167 37.946,27.167 38.024 C 27.167 38.103,27.879 38.167,28.750 38.167 C 29.621 38.167,30.333 38.103,30.333 38.024 C 30.333 37.946,30.876 37.836,31.540 37.781 C 32.203 37.725,32.772 37.602,32.803 37.506 C 32.835 37.411,33.042 37.333,33.264 37.333 C 33.485 37.333,33.667 37.267,33.667 37.185 C 33.667 37.104,33.929 36.988,34.250 36.928 C 34.571 36.867,34.833 36.747,34.833 36.659 C 34.833 36.572,34.914 36.500,35.012 36.500 C 35.110 36.500,35.289 36.406,35.410 36.292 C 35.531 36.177,35.842 35.933,36.102 35.750 C 36.943 35.156,39.287 32.741,39.416 32.336 C 39.485 32.119,39.681 31.792,39.852 31.609 C 40.023 31.425,40.209 31.026,40.266 30.721 C 40.324 30.416,40.437 30.167,40.519 30.167 C 40.600 30.167,40.667 29.979,40.667 29.750 C 40.667 29.521,40.735 29.333,40.819 29.333 C 40.903 29.333,41.019 28.752,41.077 28.042 C 41.135 27.331,41.254 26.620,41.341 26.461 C 41.428 26.301,41.500 25.870,41.500 25.502 C 41.500 25.134,41.566 24.833,41.647 24.833 C 41.728 24.833,41.847 24.347,41.910 23.752 C 41.974 23.157,42.095 22.627,42.180 22.575 C 42.264 22.523,42.333 22.260,42.333 21.990 C 42.333 21.721,42.408 21.500,42.500 21.500 C 42.592 21.500,42.667 21.331,42.668 21.125 C 42.668 20.919,42.781 20.535,42.918 20.273 C 43.055 20.010,43.167 19.691,43.167 19.564 C 43.167 19.437,43.235 19.333,43.319 19.333 C 43.402 19.333,43.524 19.015,43.590 18.626 C 43.656 18.237,43.845 17.801,44.010 17.658 C 44.176 17.514,44.362 17.195,44.424 16.948 C 44.485 16.702,44.587 16.500,44.649 16.500 C 44.711 16.500,44.904 16.256,45.077 15.958 C 45.251 15.660,45.530 15.295,45.696 15.147 C 45.863 14.999,46.000 14.809,46.000 14.726 C 46.000 14.571,46.598 14.000,46.759 14.000 C 46.844 14.000,47.087 13.814,47.577 13.375 C 47.705 13.260,47.890 13.167,47.988 13.167 C 48.086 13.167,48.167 13.054,48.167 12.917 C 48.167 12.624,26.660 12.571,25.417 12.860 M74.500 12.833 C 73.813 12.879,73.170 12.969,73.071 13.033 C 72.973 13.097,72.579 13.168,72.196 13.191 C 71.813 13.213,71.500 13.283,71.500 13.345 C 71.500 13.407,71.200 13.505,70.833 13.564 C 70.467 13.623,70.167 13.745,70.167 13.835 C 70.167 13.926,69.979 14.000,69.750 14.000 C 69.521 14.000,69.333 14.060,69.333 14.133 C 69.333 14.206,69.066 14.363,68.739 14.481 C 68.412 14.599,68.104 14.802,68.055 14.931 C 68.005 15.061,67.857 15.167,67.726 15.167 C 67.417 15.167,66.644 15.662,66.366 16.039 C 66.246 16.201,66.056 16.333,65.944 16.333 C 65.832 16.333,65.617 16.465,65.465 16.625 C 65.314 16.785,65.091 17.008,64.970 17.120 C 64.718 17.354,64.414 17.655,64.120 17.964 C 64.008 18.082,63.561 18.532,63.126 18.964 C 62.691 19.396,62.335 19.833,62.334 19.935 C 62.334 20.037,62.153 20.256,61.932 20.421 C 61.711 20.587,61.486 20.947,61.431 21.222 C 61.376 21.496,61.182 21.825,60.999 21.953 C 60.810 22.085,60.623 22.466,60.563 22.842 C 60.505 23.204,60.392 23.500,60.312 23.500 C 60.232 23.500,60.167 23.613,60.167 23.750 C 60.167 23.887,60.099 24.000,60.016 24.000 C 59.933 24.000,59.813 24.375,59.750 24.833 C 59.687 25.292,59.567 25.667,59.484 25.667 C 59.401 25.667,59.333 26.009,59.333 26.427 C 59.333 26.844,59.267 27.145,59.186 27.095 C 59.105 27.045,58.986 27.641,58.921 28.419 C 58.856 29.197,58.735 29.833,58.652 29.833 C 58.568 29.833,58.500 30.208,58.500 30.667 C 58.500 31.125,58.432 31.500,58.348 31.500 C 58.265 31.500,58.143 32.137,58.079 32.917 C 58.014 33.696,57.894 34.333,57.814 34.333 C 57.733 34.333,57.667 34.633,57.667 35.000 C 57.667 35.367,57.600 35.667,57.518 35.667 C 57.436 35.667,57.315 36.342,57.250 37.167 C 57.185 37.992,57.064 38.667,56.982 38.667 C 56.900 38.667,56.833 39.004,56.833 39.417 C 56.833 39.829,56.764 40.167,56.679 40.167 C 56.594 40.167,56.472 40.842,56.408 41.667 C 56.343 42.492,56.225 43.167,56.145 43.167 C 56.065 43.167,56.000 43.467,56.000 43.833 C 56.000 44.200,55.932 44.500,55.849 44.500 C 55.766 44.500,55.644 45.212,55.579 46.083 C 55.514 46.954,55.394 47.667,55.314 47.667 C 55.233 47.667,55.167 47.962,55.167 48.323 C 55.167 48.685,55.101 49.021,55.020 49.071 C 54.939 49.121,54.820 49.800,54.755 50.581 C 54.690 51.361,54.568 52.000,54.485 52.000 C 54.402 52.000,54.333 52.375,54.333 52.833 C 54.333 53.292,54.267 53.667,54.186 53.667 C 54.106 53.667,53.986 54.304,53.921 55.083 C 53.857 55.862,53.735 56.541,53.652 56.593 C 53.568 56.644,53.500 57.019,53.500 57.427 C 53.500 57.834,53.432 58.167,53.348 58.167 C 53.265 58.167,53.143 58.804,53.079 59.583 C 53.014 60.362,52.894 61.000,52.814 61.000 C 52.733 61.000,52.667 61.375,52.667 61.833 C 52.667 62.292,52.599 62.667,52.517 62.667 C 52.435 62.667,52.315 63.267,52.250 64.001 C 52.185 64.735,52.065 65.377,51.983 65.427 C 51.900 65.478,51.833 65.848,51.833 66.250 C 51.833 66.652,51.766 67.022,51.684 67.073 C 51.602 67.123,51.482 67.765,51.417 68.499 C 51.352 69.233,51.231 69.833,51.149 69.833 C 51.067 69.833,51.000 70.208,51.000 70.667 C 51.000 71.125,50.933 71.500,50.851 71.500 C 50.769 71.500,50.649 72.175,50.583 73.000 C 50.518 73.825,50.398 74.500,50.316 74.500 C 50.234 74.500,50.167 74.796,50.167 75.157 C 50.167 75.518,50.099 75.856,50.016 75.907 C 49.932 75.958,49.811 76.713,49.746 77.584 C 49.680 78.454,49.561 79.167,49.480 79.167 C 49.399 79.167,49.333 79.504,49.333 79.917 C 49.333 80.329,49.268 80.667,49.188 80.667 C 49.108 80.667,48.990 81.342,48.926 82.167 C 48.861 82.992,48.739 83.667,48.654 83.667 C 48.569 83.667,48.500 83.929,48.500 84.250 C 48.500 84.571,48.432 84.833,48.349 84.833 C 48.266 84.833,48.146 85.208,48.083 85.667 C 48.020 86.125,47.901 86.500,47.818 86.500 C 47.735 86.500,47.667 86.688,47.667 86.917 C 47.667 87.146,47.595 87.333,47.508 87.333 C 47.420 87.333,47.299 87.596,47.239 87.917 C 47.179 88.237,47.063 88.500,46.981 88.500 C 46.900 88.500,46.833 88.646,46.833 88.823 C 46.833 89.001,46.764 89.190,46.679 89.242 C 46.595 89.294,46.476 89.561,46.416 89.835 C 46.356 90.109,46.238 90.333,46.153 90.333 C 46.069 90.333,46.000 90.446,46.000 90.583 C 46.000 90.721,45.930 90.833,45.845 90.833 C 45.759 90.833,45.636 91.002,45.571 91.208 C 45.506 91.415,45.313 91.705,45.143 91.853 C 44.973 92.001,44.833 92.196,44.833 92.285 C 44.833 92.375,44.646 92.666,44.417 92.932 C 44.188 93.199,44.000 93.462,44.000 93.517 C 44.000 93.675,41.986 95.667,41.826 95.667 C 41.747 95.667,41.493 95.856,41.262 96.087 C 41.031 96.318,40.615 96.552,40.338 96.607 C 40.060 96.663,39.833 96.774,39.833 96.854 C 39.833 96.934,39.721 97.000,39.583 97.000 C 39.446 97.000,39.333 97.072,39.333 97.159 C 39.333 97.247,39.071 97.367,38.750 97.428 C 38.429 97.488,38.167 97.604,38.167 97.685 C 38.167 97.767,37.985 97.833,37.764 97.833 C 37.542 97.833,37.336 97.904,37.306 97.990 C 37.275 98.076,36.694 98.207,36.014 98.282 C 34.776 98.417,34.279 98.735,35.030 98.912 C 35.928 99.124,63.553 99.088,63.625 98.875 C 63.663 98.760,63.951 98.667,64.264 98.667 C 64.577 98.667,64.833 98.592,64.833 98.500 C 64.833 98.408,64.965 98.334,65.125 98.334 C 65.545 98.335,67.000 97.792,67.000 97.634 C 67.000 97.560,67.115 97.500,67.256 97.500 C 67.480 97.500,68.267 97.081,68.500 96.837 C 68.614 96.718,69.196 96.356,69.500 96.216 C 69.842 96.058,70.321 95.677,71.657 94.500 C 71.917 94.271,72.288 93.973,72.482 93.838 C 72.675 93.703,72.833 93.528,72.833 93.449 C 72.833 93.370,73.084 93.062,73.390 92.764 C 73.697 92.467,74.088 91.986,74.260 91.695 C 74.431 91.404,74.631 91.167,74.703 91.167 C 74.775 91.167,74.833 91.054,74.833 90.917 C 74.833 90.779,74.907 90.667,74.997 90.667 C 75.087 90.667,75.207 90.479,75.265 90.250 C 75.322 90.021,75.436 89.833,75.518 89.833 C 75.600 89.833,75.667 89.683,75.667 89.500 C 75.667 89.317,75.741 89.167,75.831 89.167 C 75.922 89.167,76.044 88.867,76.103 88.500 C 76.161 88.133,76.275 87.833,76.355 87.833 C 76.435 87.833,76.500 87.652,76.500 87.431 C 76.500 87.209,76.574 87.003,76.665 86.972 C 76.756 86.942,76.879 86.448,76.939 85.875 C 76.999 85.302,77.112 84.833,77.190 84.833 C 77.269 84.833,77.333 84.496,77.333 84.083 C 77.333 83.671,77.403 83.333,77.487 83.333 C 77.572 83.333,77.694 82.658,77.759 81.833 C 77.824 81.008,77.942 80.333,78.021 80.333 C 78.101 80.333,78.167 79.996,78.167 79.583 C 78.167 79.171,78.234 78.833,78.316 78.833 C 78.398 78.833,78.518 78.158,78.583 77.333 C 78.649 76.508,78.769 75.833,78.851 75.833 C 78.933 75.833,79.000 75.533,79.000 75.167 C 79.000 74.800,79.065 74.500,79.145 74.500 C 79.225 74.500,79.343 73.826,79.408 73.002 C 79.472 72.178,79.594 71.461,79.679 71.409 C 79.764 71.357,79.833 71.023,79.833 70.667 C 79.833 70.311,79.899 69.979,79.980 69.929 C 80.061 69.879,80.180 69.200,80.245 68.419 C 80.310 67.639,80.432 67.000,80.515 67.000 C 80.598 67.000,80.667 66.625,80.667 66.167 C 80.667 65.708,80.735 65.333,80.818 65.333 C 80.902 65.333,81.023 64.696,81.088 63.917 C 81.153 63.137,81.272 62.500,81.353 62.500 C 81.434 62.500,81.500 62.125,81.500 61.667 C 81.500 61.208,81.569 60.833,81.654 60.833 C 81.739 60.833,81.861 60.158,81.926 59.333 C 81.990 58.508,82.108 57.833,82.188 57.833 C 82.268 57.833,82.333 57.533,82.333 57.167 C 82.333 56.800,82.400 56.500,82.482 56.500 C 82.564 56.500,82.685 55.825,82.750 55.000 C 82.815 54.175,82.936 53.500,83.018 53.500 C 83.100 53.500,83.167 53.163,83.167 52.750 C 83.167 52.337,83.234 52.000,83.316 52.000 C 83.398 52.000,83.518 51.325,83.583 50.500 C 83.649 49.675,83.769 49.000,83.851 49.000 C 83.933 49.000,84.000 48.704,84.000 48.343 C 84.000 47.982,84.067 47.645,84.149 47.594 C 84.231 47.544,84.351 46.827,84.417 46.001 C 84.482 45.176,84.602 44.500,84.684 44.500 C 84.766 44.500,84.833 44.158,84.833 43.740 C 84.833 43.322,84.899 43.021,84.980 43.071 C 85.061 43.121,85.181 42.451,85.246 41.581 C 85.311 40.711,85.432 40.000,85.516 40.000 C 85.599 40.000,85.667 39.700,85.667 39.333 C 85.667 38.967,85.732 38.667,85.812 38.667 C 85.892 38.667,86.010 37.993,86.074 37.169 C 86.139 36.345,86.261 35.628,86.346 35.576 C 86.431 35.523,86.500 35.147,86.500 34.740 C 86.500 34.333,86.566 34.000,86.647 34.000 C 86.728 34.000,86.847 33.363,86.912 32.584 C 86.977 31.805,87.098 31.126,87.182 31.074 C 87.265 31.023,87.333 30.647,87.333 30.240 C 87.333 29.833,87.400 29.500,87.480 29.500 C 87.561 29.500,87.680 28.938,87.745 28.250 C 87.809 27.563,87.930 27.000,88.014 27.000 C 88.098 27.000,88.167 26.813,88.167 26.583 C 88.167 26.354,88.235 26.167,88.318 26.167 C 88.401 26.167,88.520 25.792,88.583 25.333 C 88.646 24.875,88.766 24.500,88.849 24.500 C 88.932 24.500,89.000 24.387,89.000 24.250 C 89.000 24.113,89.075 24.000,89.167 24.000 C 89.258 24.000,89.333 23.843,89.333 23.650 C 89.333 23.299,89.802 22.156,90.011 22.000 C 90.072 21.954,90.180 21.729,90.251 21.500 C 90.323 21.271,90.510 20.971,90.667 20.833 C 90.824 20.696,91.000 20.433,91.058 20.250 C 91.117 20.067,91.353 19.699,91.582 19.432 C 91.812 19.166,92.000 18.881,92.000 18.799 C 92.000 18.597,94.443 16.167,94.647 16.167 C 94.736 16.167,94.957 15.979,95.137 15.750 C 95.317 15.521,95.555 15.333,95.665 15.333 C 95.873 15.333,96.854 14.828,97.000 14.646 C 97.046 14.589,97.327 14.489,97.625 14.424 C 97.923 14.360,98.167 14.238,98.167 14.153 C 98.167 14.069,98.348 14.000,98.569 14.000 C 98.791 14.000,98.997 13.928,99.028 13.840 C 99.058 13.752,99.702 13.629,100.458 13.566 C 101.833 13.452,102.340 13.124,101.458 12.919 C 100.965 12.805,76.118 12.725,74.500 12.833 M322.750 28.610 C 322.567 28.659,322.345 28.767,322.258 28.850 C 322.171 28.932,321.965 29.000,321.800 29.000 C 321.635 29.000,321.500 29.067,321.500 29.149 C 321.500 29.230,321.307 29.346,321.070 29.405 C 320.681 29.503,318.500 31.493,318.500 31.750 C 318.500 31.809,318.387 31.970,318.250 32.107 C 318.112 32.245,318.000 32.502,318.000 32.679 C 318.000 32.855,317.925 33.000,317.833 33.000 C 317.742 33.000,317.667 33.192,317.667 33.427 C 317.667 33.661,317.598 33.811,317.514 33.759 C 317.288 33.619,317.107 36.025,317.222 37.655 C 317.277 38.439,317.400 39.106,317.495 39.137 C 317.589 39.169,317.667 39.338,317.667 39.514 C 317.667 39.690,317.736 39.833,317.820 39.833 C 317.904 39.833,318.024 40.062,318.085 40.341 C 318.146 40.621,318.340 40.939,318.515 41.048 C 318.690 41.157,318.833 41.336,318.833 41.445 C 318.833 41.666,320.073 42.970,320.586 43.289 C 321.151 43.640,322.305 44.167,322.509 44.167 C 322.630 44.167,322.655 44.275,322.575 44.458 C 322.505 44.619,322.367 45.069,322.269 45.458 C 322.171 45.848,322.033 46.167,321.962 46.167 C 321.891 46.167,321.833 47.099,321.833 48.239 C 321.833 50.462,322.040 50.907,322.794 50.305 C 322.947 50.183,323.220 49.971,323.400 49.833 C 323.579 49.696,323.987 49.340,324.305 49.042 C 324.624 48.744,324.938 48.500,325.003 48.500 C 325.068 48.500,325.558 48.087,326.091 47.583 C 326.624 47.079,327.113 46.667,327.178 46.667 C 327.390 46.667,330.667 43.287,330.667 43.068 C 330.667 43.006,330.854 42.781,331.083 42.569 C 331.313 42.356,331.500 42.110,331.500 42.021 C 331.500 41.767,332.056 40.781,332.359 40.497 C 332.511 40.354,332.689 39.884,332.753 39.452 C 332.818 39.020,332.938 38.667,333.019 38.667 C 333.100 38.667,333.167 37.692,333.167 36.500 C 333.167 35.308,333.100 34.333,333.019 34.333 C 332.938 34.333,332.818 33.980,332.753 33.548 C 332.689 33.116,332.503 32.647,332.342 32.506 C 332.180 32.365,331.994 32.081,331.929 31.875 C 331.864 31.669,331.741 31.500,331.655 31.500 C 331.570 31.500,331.500 31.422,331.500 31.326 C 331.500 30.889,330.101 29.664,329.292 29.392 C 329.131 29.339,329.000 29.228,329.000 29.147 C 329.000 29.066,328.819 29.000,328.597 29.000 C 328.376 29.000,328.163 28.907,328.126 28.794 C 328.054 28.580,323.453 28.423,322.750 28.610 M104.333 73.833 C 104.333 73.925,104.127 74.000,103.875 74.001 C 103.623 74.002,103.202 74.114,102.939 74.251 C 102.677 74.388,102.320 74.500,102.148 74.500 C 101.975 74.500,101.833 74.569,101.833 74.653 C 101.833 74.738,101.605 74.857,101.325 74.918 C 101.046 74.980,100.728 75.173,100.619 75.348 C 100.509 75.523,100.343 75.667,100.250 75.667 C 100.156 75.667,99.878 75.854,99.631 76.083 C 99.383 76.313,99.122 76.502,99.049 76.506 C 98.829 76.515,98.167 77.124,98.167 77.317 C 98.167 77.416,97.952 77.704,97.689 77.957 C 97.168 78.458,96.000 80.211,96.000 80.492 C 96.000 80.588,95.926 80.667,95.835 80.667 C 95.745 80.667,95.623 80.967,95.564 81.333 C 95.505 81.700,95.392 82.000,95.312 82.000 C 95.232 82.000,95.167 82.183,95.167 82.407 C 95.167 82.631,95.097 82.857,95.012 82.909 C 94.927 82.961,94.805 83.678,94.741 84.502 C 94.676 85.326,94.558 86.000,94.479 86.000 C 94.399 86.000,94.333 86.300,94.333 86.667 C 94.333 87.033,94.269 87.333,94.190 87.333 C 94.112 87.333,93.999 87.802,93.939 88.375 C 93.879 88.948,93.756 89.442,93.665 89.472 C 93.574 89.503,93.500 89.709,93.500 89.931 C 93.500 90.152,93.432 90.333,93.349 90.333 C 93.266 90.333,93.146 90.708,93.083 91.167 C 93.020 91.625,92.901 92.000,92.818 92.000 C 92.735 92.000,92.667 92.188,92.667 92.417 C 92.667 92.646,92.595 92.833,92.508 92.833 C 92.420 92.833,92.299 93.096,92.239 93.417 C 92.179 93.737,92.063 94.000,91.981 94.000 C 91.900 94.000,91.833 94.112,91.833 94.250 C 91.833 94.388,91.760 94.500,91.670 94.500 C 91.580 94.500,91.459 94.688,91.402 94.917 C 91.344 95.146,91.246 95.333,91.185 95.333 C 91.123 95.333,90.932 95.570,90.761 95.860 C 90.357 96.543,88.510 98.333,88.208 98.333 C 88.076 98.333,88.000 98.460,88.032 98.625 C 88.098 98.968,110.333 99.177,110.333 98.835 C 110.333 98.742,110.596 98.667,110.917 98.667 C 111.237 98.667,111.500 98.598,111.500 98.513 C 111.500 98.429,111.738 98.307,112.029 98.244 C 113.020 98.026,114.734 96.965,115.702 95.969 C 116.042 95.619,116.366 95.333,116.422 95.333 C 116.554 95.333,117.000 94.888,117.000 94.756 C 117.000 94.701,117.206 94.445,117.458 94.189 C 118.228 93.406,118.461 93.059,118.579 92.518 C 118.642 92.233,118.745 92.000,118.807 92.000 C 118.971 92.000,119.500 90.726,119.500 90.332 C 119.500 90.149,119.575 90.000,119.667 90.000 C 119.758 90.000,119.833 89.700,119.833 89.333 C 119.833 88.967,119.911 88.667,120.007 88.667 C 120.120 88.667,120.172 87.802,120.158 86.167 C 120.145 84.792,120.067 83.667,119.984 83.667 C 119.901 83.667,119.833 83.478,119.833 83.248 C 119.833 83.017,119.768 82.699,119.687 82.539 C 119.607 82.380,119.407 81.819,119.244 81.292 C 119.080 80.765,118.891 80.333,118.824 80.333 C 118.757 80.333,118.656 80.146,118.598 79.917 C 118.541 79.688,118.420 79.500,118.330 79.500 C 118.240 79.500,118.167 79.420,118.167 79.321 C 118.167 79.223,118.073 79.042,117.958 78.919 C 117.844 78.796,117.563 78.451,117.334 78.153 C 116.642 77.250,115.853 76.500,115.598 76.500 C 115.465 76.500,115.308 76.350,115.250 76.167 C 115.192 75.983,115.080 75.833,115.001 75.833 C 114.922 75.833,114.757 75.740,114.634 75.625 C 114.276 75.291,113.389 74.833,113.099 74.833 C 112.953 74.833,112.833 74.777,112.833 74.707 C 112.833 74.528,111.965 74.167,111.258 74.052 C 110.928 73.999,110.618 73.890,110.569 73.811 C 110.441 73.603,104.333 73.625,104.333 73.833 " stroke="none" fill="#b47cdc" fill-rule="evenodd"></path><path id="path1" d="M107.155 13.563 C 107.103 13.617,106.709 13.675,106.280 13.691 C 105.851 13.707,105.500 13.784,105.500 13.860 C 105.500 13.937,105.279 14.000,105.010 14.000 C 104.740 14.000,104.480 14.065,104.431 14.144 C 104.382 14.224,104.072 14.332,103.742 14.386 C 103.035 14.500,102.167 14.862,102.167 15.041 C 102.167 15.110,102.021 15.167,101.843 15.167 C 101.665 15.167,101.473 15.243,101.415 15.336 C 101.357 15.429,101.240 15.462,101.155 15.410 C 101.070 15.357,101.000 15.381,101.000 15.464 C 101.000 15.547,100.737 15.756,100.417 15.928 C 100.096 16.101,99.833 16.300,99.833 16.371 C 99.833 16.442,99.721 16.500,99.583 16.500 C 99.446 16.500,99.333 16.575,99.333 16.667 C 99.333 16.758,99.231 16.833,99.106 16.833 C 98.803 16.833,95.167 20.463,95.167 20.765 C 95.167 20.894,95.093 21.000,95.003 21.000 C 94.913 21.000,94.793 21.185,94.737 21.411 C 94.680 21.637,94.499 21.864,94.334 21.916 C 94.156 21.973,93.991 22.245,93.927 22.589 C 93.867 22.907,93.747 23.167,93.659 23.167 C 93.572 23.167,93.500 23.279,93.500 23.417 C 93.500 23.554,93.430 23.667,93.344 23.667 C 93.257 23.667,93.136 24.004,93.075 24.417 C 93.013 24.829,92.896 25.167,92.814 25.167 C 92.733 25.167,92.667 25.354,92.667 25.583 C 92.667 25.813,92.598 26.000,92.514 26.000 C 92.430 26.000,92.309 26.563,92.245 27.250 C 92.180 27.938,92.061 28.500,91.980 28.500 C 91.900 28.500,91.833 28.871,91.833 29.323 C 91.833 29.776,91.765 30.189,91.682 30.241 C 91.598 30.292,91.477 30.972,91.412 31.751 C 91.347 32.529,91.228 33.167,91.147 33.167 C 91.066 33.167,91.000 33.462,91.000 33.823 C 91.000 34.185,90.933 34.522,90.851 34.572 C 90.769 34.623,90.649 35.340,90.583 36.166 C 90.518 36.991,90.398 37.667,90.316 37.667 C 90.234 37.667,90.167 38.042,90.167 38.500 C 90.167 38.958,90.099 39.333,90.017 39.333 C 89.935 39.333,89.815 39.933,89.750 40.667 C 89.685 41.400,89.565 42.000,89.483 42.000 C 89.401 42.000,89.333 42.371,89.333 42.823 C 89.333 43.276,89.264 43.690,89.179 43.742 C 89.094 43.795,88.972 44.512,88.908 45.336 C 88.843 46.159,88.725 46.833,88.645 46.833 C 88.565 46.833,88.500 47.133,88.500 47.500 C 88.500 47.867,88.435 48.167,88.355 48.167 C 88.275 48.167,88.157 48.842,88.092 49.667 C 88.028 50.492,87.906 51.167,87.821 51.167 C 87.736 51.167,87.667 51.537,87.667 51.990 C 87.667 52.443,87.600 52.855,87.517 52.906 C 87.435 52.957,87.315 53.599,87.250 54.333 C 87.185 55.068,87.065 55.710,86.983 55.761 C 86.900 55.812,86.833 56.171,86.833 56.560 C 86.833 56.949,86.762 57.338,86.674 57.426 C 86.586 57.514,86.463 58.206,86.400 58.965 C 86.336 59.723,86.221 60.383,86.142 60.432 C 86.064 60.480,86.000 60.815,86.000 61.177 C 86.000 61.538,85.933 61.833,85.851 61.833 C 85.769 61.833,85.649 62.508,85.583 63.333 C 85.518 64.158,85.398 64.833,85.316 64.833 C 85.234 64.833,85.167 65.204,85.167 65.657 C 85.167 66.110,85.098 66.523,85.015 66.574 C 84.931 66.626,84.810 67.305,84.745 68.084 C 84.680 68.863,84.561 69.500,84.480 69.500 C 84.399 69.500,84.333 69.796,84.333 70.157 C 84.333 70.518,84.264 70.857,84.179 70.909 C 84.094 70.961,83.972 71.678,83.908 72.502 C 83.843 73.326,83.725 74.000,83.645 74.000 C 83.565 74.000,83.500 74.300,83.500 74.667 C 83.500 75.033,83.425 75.333,83.333 75.333 C 83.242 75.333,83.181 75.390,83.198 75.458 C 83.282 75.799,82.945 78.333,82.816 78.333 C 82.734 78.333,82.667 78.702,82.667 79.153 C 82.667 79.660,82.587 79.999,82.458 80.042 C 82.298 80.095,82.250 81.270,82.250 85.167 C 82.250 89.063,82.298 90.238,82.458 90.292 C 82.578 90.331,82.667 90.640,82.667 91.014 C 82.667 91.373,82.735 91.667,82.818 91.667 C 82.901 91.667,83.020 92.042,83.083 92.500 C 83.146 92.958,83.251 93.333,83.315 93.333 C 83.379 93.333,83.571 93.671,83.741 94.083 C 83.911 94.496,84.114 94.833,84.192 94.833 C 84.270 94.833,84.333 94.906,84.333 94.994 C 84.333 95.283,85.255 96.107,85.785 96.291 C 86.369 96.495,86.604 96.343,87.444 95.213 C 87.702 94.867,88.057 94.452,88.232 94.292 C 88.407 94.131,88.497 94.000,88.431 94.000 C 88.365 94.000,88.457 93.794,88.636 93.542 C 89.057 92.948,89.833 91.334,89.833 91.052 C 89.833 90.932,89.901 90.833,89.984 90.833 C 90.067 90.833,90.187 90.458,90.250 90.000 C 90.313 89.542,90.433 89.167,90.516 89.167 C 90.599 89.167,90.667 88.979,90.667 88.750 C 90.667 88.521,90.734 88.333,90.816 88.333 C 90.898 88.333,91.018 87.733,91.083 86.999 C 91.148 86.265,91.269 85.623,91.351 85.573 C 91.433 85.522,91.500 85.147,91.500 84.740 C 91.500 84.333,91.565 84.000,91.644 84.000 C 91.723 84.000,91.838 83.574,91.899 83.053 C 91.960 82.532,92.069 82.025,92.141 81.928 C 92.213 81.830,92.417 81.300,92.594 80.750 C 92.771 80.200,92.954 79.712,93.001 79.667 C 93.048 79.621,93.236 79.283,93.418 78.917 C 93.601 78.550,93.806 78.225,93.875 78.194 C 93.944 78.164,94.000 77.995,94.000 77.819 C 94.000 77.644,94.074 77.500,94.163 77.500 C 94.253 77.500,94.370 77.327,94.424 77.115 C 94.477 76.904,94.703 76.593,94.927 76.425 C 95.150 76.257,95.333 76.053,95.333 75.970 C 95.333 75.803,97.416 73.667,97.579 73.667 C 97.635 73.667,97.883 73.479,98.131 73.250 C 98.378 73.021,98.674 72.833,98.790 72.833 C 98.905 72.833,99.000 72.760,99.000 72.670 C 99.000 72.580,99.188 72.459,99.417 72.402 C 99.646 72.344,99.833 72.230,99.833 72.149 C 99.833 72.067,99.946 72.000,100.083 72.000 C 100.221 72.000,100.333 71.925,100.333 71.833 C 100.333 71.742,100.502 71.666,100.708 71.666 C 100.915 71.665,101.298 71.553,101.561 71.416 C 101.823 71.279,102.173 71.167,102.338 71.167 C 102.504 71.167,102.670 71.073,102.708 70.958 C 102.761 70.801,103.597 70.750,106.131 70.750 C 108.591 70.750,109.539 70.805,109.692 70.958 C 109.806 71.073,110.095 71.167,110.333 71.167 C 110.572 71.167,110.838 71.237,110.925 71.323 C 111.012 71.409,111.477 71.531,111.958 71.595 L 112.833 71.710 112.833 71.198 C 112.833 70.917,112.908 70.640,113.000 70.583 C 113.092 70.527,113.167 70.147,113.167 69.740 C 113.167 69.333,113.235 69.000,113.318 69.000 C 113.401 69.000,113.522 68.287,113.588 67.417 C 113.653 66.546,113.772 65.833,113.853 65.833 C 113.934 65.833,114.000 65.533,114.000 65.167 C 114.000 64.800,114.069 64.500,114.154 64.500 C 114.239 64.500,114.361 63.825,114.426 63.000 C 114.490 62.175,114.601 61.500,114.672 61.500 C 114.743 61.500,114.843 61.144,114.894 60.708 C 115.168 58.374,115.402 57.000,115.527 57.000 C 115.604 57.000,115.667 56.625,115.667 56.167 C 115.667 55.708,115.736 55.333,115.821 55.333 C 115.906 55.333,116.028 54.658,116.092 53.833 C 116.157 53.008,116.275 52.333,116.355 52.333 C 116.435 52.333,116.500 52.038,116.500 51.677 C 116.500 51.315,116.569 50.977,116.654 50.924 C 116.739 50.872,116.861 50.155,116.926 49.331 C 116.990 48.507,117.108 47.833,117.188 47.833 C 117.268 47.833,117.333 47.496,117.333 47.083 C 117.333 46.671,117.399 46.333,117.480 46.333 C 117.561 46.333,117.680 45.696,117.745 44.917 C 117.810 44.138,117.931 43.459,118.015 43.407 C 118.098 43.356,118.167 42.985,118.167 42.583 C 118.167 42.182,118.234 41.812,118.316 41.761 C 118.398 41.710,118.518 41.068,118.583 40.333 C 118.648 39.599,118.769 38.957,118.851 38.906 C 118.933 38.855,119.000 38.485,119.000 38.083 C 119.000 37.682,119.068 37.311,119.152 37.259 C 119.235 37.208,119.357 36.528,119.421 35.749 C 119.486 34.971,119.606 34.333,119.686 34.333 C 119.767 34.333,119.833 33.996,119.833 33.583 C 119.833 33.171,119.899 32.833,119.979 32.833 C 120.058 32.833,120.176 32.159,120.241 31.336 C 120.305 30.512,120.427 29.795,120.512 29.742 C 120.597 29.690,120.667 29.320,120.667 28.921 C 120.667 28.521,120.751 28.166,120.855 28.132 C 121.362 27.963,121.040 22.048,120.480 21.250 C 120.416 21.158,120.311 20.802,120.246 20.458 C 120.182 20.115,120.063 19.833,119.981 19.833 C 119.900 19.833,119.833 19.721,119.833 19.583 C 119.833 19.446,119.766 19.333,119.685 19.333 C 119.603 19.333,119.489 19.146,119.432 18.917 C 119.374 18.688,119.253 18.500,119.163 18.500 C 119.074 18.500,119.000 18.405,119.000 18.290 C 119.000 18.174,118.813 17.878,118.583 17.631 C 118.354 17.383,118.167 17.103,118.167 17.007 C 118.167 16.912,118.091 16.833,117.997 16.833 C 117.904 16.833,117.483 16.497,117.060 16.086 C 116.637 15.676,116.226 15.380,116.146 15.430 C 116.066 15.479,116.000 15.440,116.000 15.343 C 116.000 15.246,115.850 15.167,115.667 15.167 C 115.483 15.167,115.333 15.092,115.333 15.000 C 115.333 14.908,115.221 14.833,115.083 14.833 C 114.946 14.833,114.833 14.754,114.833 14.657 C 114.833 14.560,114.764 14.523,114.678 14.576 C 114.593 14.629,114.476 14.596,114.418 14.503 C 114.361 14.410,114.131 14.333,113.907 14.333 C 113.683 14.333,113.500 14.258,113.500 14.167 C 113.500 14.075,113.325 14.000,113.111 14.000 C 112.897 14.000,112.671 13.948,112.608 13.885 C 112.387 13.664,107.344 13.366,107.155 13.563 M49.088 15.825 C 48.907 16.094,48.729 16.284,48.691 16.247 C 48.595 16.151,48.000 16.930,48.000 17.151 C 48.000 17.251,47.937 17.333,47.860 17.333 C 47.783 17.333,47.577 17.632,47.402 17.998 C 47.227 18.364,47.027 18.664,46.958 18.665 C 46.890 18.666,46.833 18.817,46.833 19.000 C 46.833 19.183,46.758 19.333,46.667 19.333 C 46.575 19.333,46.500 19.416,46.500 19.516 C 46.500 19.694,46.126 20.623,45.822 21.201 C 45.740 21.357,45.624 21.789,45.565 22.159 C 45.506 22.530,45.392 22.833,45.312 22.833 C 45.232 22.833,45.167 23.090,45.167 23.403 C 45.167 23.716,45.094 23.997,45.006 24.028 C 44.917 24.058,44.794 24.815,44.731 25.708 C 44.669 26.602,44.554 27.333,44.475 27.333 C 44.397 27.333,44.333 27.591,44.333 27.907 C 44.333 28.222,44.265 28.522,44.182 28.574 C 44.099 28.625,43.980 29.042,43.917 29.500 C 43.854 29.958,43.734 30.333,43.651 30.333 C 43.568 30.333,43.500 30.483,43.500 30.667 C 43.500 30.850,43.435 31.000,43.355 31.000 C 43.275 31.000,43.161 31.300,43.103 31.667 C 43.044 32.033,42.922 32.333,42.831 32.333 C 42.741 32.333,42.667 32.483,42.667 32.667 C 42.667 32.850,42.598 33.000,42.513 33.000 C 42.429 33.000,42.314 33.210,42.257 33.468 C 42.201 33.725,42.007 34.041,41.827 34.171 C 41.647 34.301,41.500 34.502,41.500 34.619 C 41.500 34.735,41.275 35.031,41.000 35.276 C 40.725 35.521,40.500 35.788,40.500 35.868 C 40.500 36.036,39.736 36.833,39.576 36.833 C 39.518 36.833,39.055 37.246,38.547 37.750 C 38.039 38.254,37.520 38.667,37.395 38.667 C 37.269 38.667,37.167 38.742,37.167 38.833 C 37.167 38.925,37.012 39.000,36.823 39.000 C 36.635 39.000,36.527 39.076,36.585 39.169 C 36.642 39.262,36.462 39.383,36.178 39.439 C 35.897 39.496,35.667 39.607,35.667 39.688 C 35.667 39.768,35.475 39.833,35.240 39.833 C 35.006 39.833,34.856 39.902,34.908 39.985 C 34.959 40.069,34.701 40.188,34.335 40.250 C 33.968 40.312,33.626 40.431,33.574 40.515 C 33.523 40.598,33.222 40.667,32.907 40.667 C 32.591 40.667,32.333 40.742,32.333 40.833 C 32.333 40.937,31.444 41.000,30.000 41.000 C 28.556 41.000,27.667 40.937,27.667 40.833 C 27.667 40.742,27.329 40.667,26.917 40.667 C 26.504 40.667,26.167 40.601,26.167 40.521 C 26.167 40.442,25.792 40.327,25.333 40.266 C 24.875 40.205,24.500 40.083,24.500 39.994 C 24.500 39.906,24.210 39.833,23.855 39.833 C 23.150 39.833,23.006 40.148,23.002 41.708 C 23.001 42.052,22.925 42.333,22.833 42.333 C 22.742 42.333,22.667 42.633,22.667 43.000 C 22.667 43.367,22.604 43.667,22.528 43.667 C 22.451 43.667,22.384 43.760,22.379 43.875 C 22.316 45.166,22.089 46.833,21.976 46.833 C 21.898 46.833,21.833 47.133,21.833 47.500 C 21.833 47.867,21.758 48.167,21.667 48.167 C 21.575 48.167,21.514 48.223,21.531 48.292 C 21.615 48.633,21.279 51.167,21.149 51.167 C 21.067 51.167,21.000 51.537,21.000 51.990 C 21.000 52.443,20.931 52.857,20.846 52.909 C 20.761 52.961,20.639 53.678,20.574 54.502 C 20.510 55.326,20.392 56.000,20.312 56.000 C 20.232 56.000,20.167 56.285,20.167 56.633 C 20.167 56.982,20.095 57.338,20.007 57.426 C 19.920 57.514,19.796 58.206,19.733 58.965 C 19.670 59.723,19.554 60.383,19.476 60.432 C 19.397 60.480,19.333 60.815,19.333 61.177 C 19.333 61.538,19.268 61.833,19.188 61.833 C 19.108 61.833,18.990 62.508,18.926 63.333 C 18.861 64.158,18.739 64.833,18.654 64.833 C 18.569 64.833,18.500 65.204,18.500 65.657 C 18.500 66.110,18.432 66.523,18.348 66.574 C 18.265 66.626,18.143 67.305,18.079 68.084 C 18.014 68.863,17.894 69.500,17.814 69.500 C 17.733 69.500,17.667 69.796,17.667 70.157 C 17.667 70.518,17.597 70.857,17.512 70.909 C 17.427 70.961,17.305 71.678,17.241 72.502 C 17.176 73.326,17.058 74.000,16.979 74.000 C 16.899 74.000,16.833 74.300,16.833 74.667 C 16.833 75.033,16.758 75.333,16.667 75.333 C 16.575 75.333,16.514 75.390,16.531 75.458 C 16.615 75.799,16.279 78.333,16.149 78.333 C 16.067 78.333,16.000 78.708,16.000 79.167 C 16.000 79.625,15.934 80.000,15.853 80.000 C 15.772 80.000,15.653 80.637,15.588 81.416 C 15.523 82.195,15.402 82.874,15.318 82.926 C 15.235 82.977,15.167 83.423,15.167 83.917 C 15.167 84.410,15.092 84.860,15.000 84.917 C 14.783 85.051,14.783 87.949,15.000 88.083 C 15.092 88.140,15.167 88.515,15.167 88.917 C 15.167 89.318,15.235 89.689,15.319 89.741 C 15.403 89.793,15.524 90.153,15.589 90.543 C 15.654 90.932,15.838 91.438,15.998 91.667 C 16.159 91.896,16.342 92.252,16.406 92.458 C 16.470 92.665,16.592 92.833,16.678 92.833 C 16.763 92.833,16.833 92.946,16.833 93.083 C 16.833 93.221,16.903 93.333,16.989 93.333 C 17.074 93.333,17.191 93.479,17.247 93.658 C 17.304 93.837,17.496 94.029,17.675 94.086 C 17.853 94.143,18.045 94.371,18.101 94.594 C 18.162 94.839,18.324 95.000,18.507 95.000 C 18.674 95.000,18.857 95.146,18.914 95.325 C 18.971 95.503,19.163 95.696,19.342 95.753 C 19.521 95.809,19.667 95.926,19.667 96.011 C 19.667 96.097,19.779 96.167,19.917 96.167 C 20.054 96.167,20.167 96.240,20.167 96.330 C 20.167 96.420,20.354 96.541,20.583 96.598 C 20.813 96.656,21.000 96.757,21.000 96.824 C 21.000 96.891,21.431 97.080,21.958 97.244 C 22.485 97.407,23.047 97.607,23.206 97.687 C 23.365 97.768,23.755 97.833,24.071 97.833 C 24.388 97.833,24.691 97.904,24.744 97.991 C 24.867 98.189,29.183 98.194,29.421 97.996 C 29.517 97.916,29.912 97.832,30.298 97.810 C 30.684 97.787,31.000 97.708,31.000 97.634 C 31.000 97.560,31.148 97.500,31.330 97.500 C 31.653 97.500,32.562 97.193,33.609 96.732 C 33.897 96.604,34.216 96.500,34.317 96.500 C 34.418 96.500,34.500 96.425,34.500 96.333 C 34.500 96.242,34.612 96.167,34.750 96.167 C 34.887 96.167,35.000 96.106,35.000 96.031 C 35.000 95.956,35.263 95.770,35.583 95.617 C 35.904 95.464,36.167 95.263,36.167 95.169 C 36.167 95.076,36.306 95.000,36.477 95.000 C 36.647 95.000,36.927 94.813,37.100 94.583 C 37.272 94.354,37.500 94.167,37.608 94.167 C 37.861 94.167,40.667 91.320,40.667 91.064 C 40.667 90.957,40.779 90.826,40.917 90.773 C 41.054 90.720,41.167 90.530,41.167 90.350 C 41.167 90.170,41.308 89.978,41.480 89.923 C 41.661 89.866,41.837 89.605,41.897 89.306 C 41.954 89.021,42.139 88.667,42.308 88.519 C 42.478 88.371,42.669 87.969,42.732 87.625 C 42.796 87.281,42.920 87.000,43.008 87.000 C 43.095 87.000,43.167 86.828,43.167 86.617 C 43.167 86.406,43.244 86.156,43.338 86.062 C 43.432 85.968,43.555 85.503,43.611 85.029 C 43.667 84.555,43.778 84.167,43.857 84.167 C 43.935 84.167,44.000 83.792,44.000 83.333 C 44.000 82.875,44.068 82.500,44.152 82.500 C 44.235 82.500,44.357 81.863,44.421 81.083 C 44.486 80.304,44.606 79.667,44.686 79.667 C 44.767 79.667,44.833 79.329,44.833 78.917 C 44.833 78.504,44.899 78.167,44.980 78.167 C 45.061 78.167,45.180 77.454,45.246 76.583 C 45.311 75.713,45.432 75.000,45.516 75.000 C 45.599 75.000,45.667 74.700,45.667 74.333 C 45.667 73.967,45.732 73.667,45.812 73.667 C 45.892 73.667,46.010 72.993,46.074 72.169 C 46.139 71.345,46.261 70.628,46.346 70.576 C 46.431 70.523,46.500 70.147,46.500 69.740 C 46.500 69.333,46.568 69.000,46.651 69.000 C 46.734 69.000,46.856 68.287,46.921 67.417 C 46.986 66.546,47.106 65.833,47.186 65.833 C 47.267 65.833,47.333 65.533,47.333 65.167 C 47.333 64.800,47.403 64.500,47.487 64.500 C 47.572 64.500,47.694 63.825,47.759 63.000 C 47.824 62.175,47.934 61.500,48.005 61.500 C 48.076 61.500,48.176 61.144,48.227 60.708 C 48.501 58.374,48.736 57.000,48.860 57.000 C 48.937 57.000,49.000 56.625,49.000 56.167 C 49.000 55.708,49.069 55.333,49.154 55.333 C 49.239 55.333,49.361 54.658,49.426 53.833 C 49.490 53.008,49.608 52.333,49.688 52.333 C 49.768 52.333,49.833 52.038,49.833 51.677 C 49.833 51.315,49.900 50.978,49.982 50.928 C 50.064 50.877,50.185 50.160,50.250 49.334 C 50.315 48.509,50.436 47.833,50.518 47.833 C 50.600 47.833,50.667 47.496,50.667 47.083 C 50.667 46.671,50.734 46.333,50.816 46.333 C 50.898 46.333,51.018 45.658,51.083 44.833 C 51.149 44.008,51.269 43.333,51.351 43.333 C 51.433 43.333,51.500 42.958,51.500 42.500 C 51.500 42.042,51.569 41.667,51.654 41.667 C 51.739 41.667,51.861 40.992,51.926 40.167 C 51.990 39.342,52.108 38.667,52.188 38.667 C 52.268 38.667,52.333 38.371,52.333 38.010 C 52.333 37.649,52.399 37.312,52.480 37.262 C 52.561 37.212,52.680 36.533,52.745 35.752 C 52.810 34.972,52.932 34.333,53.015 34.333 C 53.098 34.333,53.167 33.958,53.167 33.500 C 53.167 33.042,53.233 32.667,53.314 32.667 C 53.394 32.667,53.514 32.029,53.579 31.251 C 53.643 30.472,53.765 29.792,53.848 29.741 C 53.932 29.689,54.000 28.297,54.000 26.647 C 54.000 24.689,53.942 23.683,53.833 23.750 C 53.730 23.814,53.666 23.515,53.665 22.968 C 53.663 21.668,53.476 20.329,53.311 20.431 C 53.231 20.480,53.167 20.253,53.167 19.927 C 53.167 19.600,53.092 19.333,53.000 19.333 C 52.908 19.333,52.833 19.160,52.833 18.949 C 52.833 18.737,52.579 18.141,52.268 17.625 C 51.957 17.109,51.751 16.632,51.810 16.566 C 51.869 16.500,51.842 16.482,51.750 16.526 C 51.540 16.625,50.829 15.898,50.975 15.734 C 51.035 15.668,50.996 15.663,50.888 15.725 C 50.781 15.786,50.580 15.723,50.442 15.585 C 50.034 15.177,49.453 15.280,49.088 15.825 " stroke="none" fill="#e3bcec" fill-rule="evenodd"></path><path id="path2" d="M225.500 28.833 C 225.500 28.925,225.313 29.000,225.083 29.000 C 224.854 29.000,224.667 29.067,224.667 29.148 C 224.667 29.230,224.420 29.342,224.120 29.399 C 223.819 29.455,223.465 29.651,223.333 29.834 C 223.201 30.017,222.997 30.167,222.880 30.167 C 222.763 30.167,222.667 30.252,222.667 30.355 C 222.667 30.459,222.403 30.793,222.081 31.096 C 221.759 31.400,221.449 31.878,221.393 32.158 C 221.337 32.438,221.226 32.667,221.146 32.667 C 221.066 32.667,221.000 32.854,221.000 33.083 C 221.000 33.313,220.925 33.500,220.833 33.500 C 220.723 33.500,220.667 40.747,220.667 54.907 C 220.667 68.998,220.724 76.349,220.833 76.417 C 220.925 76.473,221.000 76.703,221.000 76.927 C 221.000 77.150,221.067 77.333,221.149 77.333 C 221.230 77.333,221.346 77.527,221.405 77.763 C 221.518 78.213,223.512 80.333,223.821 80.333 C 223.920 80.333,224.000 80.400,224.000 80.481 C 224.000 80.563,224.262 80.679,224.583 80.739 C 224.904 80.799,225.167 80.920,225.167 81.008 C 225.167 81.100,226.069 81.167,227.333 81.167 C 228.667 81.167,229.500 81.103,229.500 81.000 C 229.500 80.908,229.682 80.833,229.905 80.833 C 230.127 80.833,230.422 80.721,230.560 80.583 C 230.697 80.446,230.858 80.333,230.917 80.333 C 230.976 80.333,231.128 80.240,231.256 80.125 C 231.746 79.686,231.989 79.500,232.074 79.500 C 232.287 79.500,232.833 78.903,232.833 78.670 C 232.833 78.529,232.982 78.320,233.165 78.207 C 233.364 78.082,233.539 77.733,233.603 77.333 C 233.661 76.967,233.775 76.667,233.855 76.667 C 233.935 76.667,234.000 76.446,234.000 76.177 C 234.000 75.907,234.075 75.640,234.167 75.583 C 234.275 75.516,234.333 71.336,234.333 63.587 C 234.333 51.558,234.347 51.167,234.774 51.167 C 235.001 51.167,235.825 50.709,236.000 50.485 C 236.046 50.426,236.252 50.326,236.458 50.261 C 236.665 50.197,236.833 50.074,236.833 49.989 C 236.833 49.903,236.946 49.833,237.083 49.833 C 237.221 49.833,237.333 49.766,237.333 49.685 C 237.333 49.603,237.521 49.489,237.750 49.432 C 237.979 49.374,238.167 49.253,238.167 49.163 C 238.167 49.074,238.279 49.000,238.417 49.000 C 238.554 49.000,238.667 48.926,238.667 48.837 C 238.667 48.747,238.854 48.626,239.083 48.568 C 239.313 48.511,239.500 48.397,239.500 48.315 C 239.500 48.234,239.612 48.167,239.750 48.167 C 239.887 48.167,240.150 48.035,240.333 47.875 C 240.517 47.715,240.817 47.452,241.000 47.292 C 241.183 47.131,241.411 47.000,241.506 47.000 C 241.682 47.000,242.516 46.510,242.667 46.318 C 242.713 46.259,242.919 46.159,243.125 46.095 C 243.331 46.030,243.500 45.908,243.500 45.822 C 243.500 45.737,243.612 45.667,243.750 45.667 C 243.887 45.667,244.000 45.593,244.000 45.503 C 244.000 45.413,244.188 45.293,244.417 45.235 C 244.646 45.178,244.833 45.064,244.833 44.982 C 244.833 44.900,244.946 44.833,245.083 44.833 C 245.221 44.833,245.333 44.763,245.333 44.678 C 245.333 44.592,245.502 44.469,245.708 44.404 C 245.915 44.339,246.196 44.165,246.333 44.017 C 246.471 43.869,246.865 43.619,247.208 43.460 C 247.552 43.302,247.833 43.096,247.833 43.003 C 247.833 42.910,247.986 42.833,248.172 42.833 C 248.358 42.833,248.554 42.721,248.606 42.583 C 248.659 42.446,248.844 42.333,249.018 42.333 C 249.191 42.333,249.333 42.258,249.333 42.167 C 249.333 42.075,249.429 42.000,249.547 42.000 C 249.905 42.000,251.008 40.737,251.440 39.833 C 251.505 39.696,251.620 39.542,251.695 39.491 C 251.770 39.440,251.880 38.933,251.940 38.366 C 251.999 37.798,252.112 37.333,252.190 37.333 C 252.269 37.333,252.333 36.958,252.333 36.500 C 252.333 36.042,252.269 35.667,252.190 35.667 C 252.111 35.667,252.002 35.237,251.948 34.711 C 251.894 34.185,251.771 33.729,251.675 33.697 C 251.579 33.665,251.500 33.533,251.500 33.403 C 251.500 33.273,251.431 33.167,251.347 33.167 C 251.262 33.167,251.146 32.952,251.088 32.690 C 251.031 32.427,250.800 32.053,250.575 31.857 C 250.350 31.662,250.167 31.432,250.167 31.346 C 250.167 31.260,249.998 31.136,249.792 31.071 C 249.585 31.006,249.301 30.820,249.161 30.658 C 249.020 30.497,248.551 30.311,248.119 30.247 C 247.687 30.182,247.333 30.062,247.333 29.981 C 247.333 29.900,246.471 29.833,245.417 29.833 C 244.362 29.833,243.500 29.899,243.500 29.978 C 243.500 30.058,243.231 30.167,242.902 30.220 C 242.572 30.274,242.179 30.460,242.027 30.635 C 241.874 30.809,241.581 31.006,241.375 31.071 C 241.169 31.136,241.000 31.259,241.000 31.345 C 241.000 31.430,240.887 31.500,240.750 31.500 C 240.612 31.500,240.500 31.575,240.500 31.667 C 240.500 31.758,240.348 31.833,240.161 31.833 C 239.975 31.833,239.780 31.946,239.727 32.083 C 239.674 32.221,239.497 32.333,239.333 32.333 C 239.170 32.333,238.992 32.446,238.940 32.583 C 238.887 32.721,238.696 32.833,238.516 32.833 C 238.336 32.833,238.142 32.982,238.083 33.167 C 238.025 33.350,237.848 33.500,237.689 33.500 C 237.530 33.500,237.310 33.590,237.200 33.700 C 237.090 33.810,237.000 33.836,237.000 33.758 C 237.000 33.680,236.869 33.766,236.708 33.951 C 236.548 34.135,236.248 34.339,236.042 34.404 C 235.835 34.469,235.667 34.592,235.667 34.678 C 235.667 34.763,235.560 34.833,235.431 34.833 C 235.301 34.833,235.169 34.898,235.139 34.978 C 234.959 35.446,234.333 35.342,234.333 34.845 C 234.333 34.563,234.258 34.333,234.167 34.333 C 234.075 34.333,234.000 34.071,234.000 33.750 C 234.000 33.429,233.935 33.167,233.855 33.167 C 233.775 33.167,233.668 32.906,233.616 32.587 C 233.564 32.268,233.330 31.814,233.094 31.579 C 232.859 31.344,232.667 31.077,232.667 30.987 C 232.667 30.743,231.691 29.833,231.429 29.833 C 231.304 29.833,231.159 29.721,231.106 29.583 C 231.054 29.446,230.858 29.333,230.672 29.333 C 230.486 29.333,230.333 29.258,230.333 29.167 C 230.333 29.075,230.146 29.000,229.917 29.000 C 229.688 29.000,229.500 28.925,229.500 28.833 C 229.500 28.731,228.722 28.667,227.500 28.667 C 226.278 28.667,225.500 28.731,225.500 28.833 M292.167 28.833 C 292.167 28.925,292.017 29.000,291.833 29.000 C 291.650 29.000,291.500 29.067,291.500 29.149 C 291.500 29.230,291.308 29.345,291.074 29.404 C 290.554 29.535,288.833 31.194,288.833 31.565 C 288.833 31.713,288.758 31.833,288.667 31.833 C 288.575 31.833,288.500 31.946,288.500 32.083 C 288.500 32.221,288.426 32.333,288.335 32.333 C 288.245 32.333,288.123 32.633,288.064 33.000 C 288.005 33.367,287.892 33.667,287.812 33.667 C 287.732 33.667,287.667 34.417,287.667 35.333 C 287.667 36.250,287.733 37.000,287.814 37.000 C 287.896 37.000,288.013 37.337,288.075 37.750 C 288.136 38.162,288.257 38.500,288.344 38.500 C 288.430 38.500,288.500 38.612,288.500 38.750 C 288.500 38.887,288.575 39.000,288.667 39.000 C 288.758 39.000,288.833 39.112,288.833 39.249 C 288.833 39.385,289.058 39.712,289.333 39.975 C 289.608 40.238,289.833 40.525,289.833 40.613 C 289.833 40.701,290.021 40.936,290.250 41.136 C 290.479 41.335,290.667 41.568,290.667 41.654 C 290.667 41.740,290.817 41.858,291.000 41.917 C 291.183 41.975,291.333 42.122,291.333 42.244 C 291.333 42.365,291.558 42.706,291.833 43.000 C 292.108 43.294,292.333 43.607,292.333 43.695 C 292.333 43.784,292.596 44.103,292.917 44.406 C 293.237 44.708,293.500 45.012,293.500 45.081 C 293.500 45.150,293.800 45.506,294.167 45.873 C 294.533 46.239,294.833 46.612,294.833 46.700 C 294.833 46.789,295.096 47.116,295.417 47.428 C 295.737 47.739,296.000 48.036,296.000 48.087 C 296.000 48.192,296.238 48.491,296.792 49.084 C 296.998 49.304,297.167 49.536,297.167 49.599 C 297.167 49.662,297.373 49.923,297.625 50.179 C 298.233 50.796,298.500 51.128,298.500 51.265 C 298.500 51.327,298.762 51.625,299.083 51.927 C 299.404 52.230,299.667 52.555,299.667 52.649 C 299.667 52.743,299.967 53.117,300.333 53.480 C 300.700 53.844,301.000 54.221,301.000 54.320 C 301.000 54.419,301.070 54.500,301.155 54.500 C 301.241 54.500,301.357 54.646,301.414 54.825 C 301.471 55.003,301.656 55.194,301.825 55.247 C 301.995 55.301,302.180 55.530,302.237 55.756 C 302.293 55.982,302.413 56.167,302.503 56.167 C 302.811 56.167,302.667 56.683,302.250 57.069 C 302.021 57.281,301.833 57.511,301.833 57.580 C 301.833 57.649,301.552 57.996,301.208 58.351 C 300.865 58.706,300.493 59.091,300.383 59.207 C 300.273 59.322,300.085 59.507,299.966 59.617 C 299.657 59.904,299.333 60.305,299.333 60.403 C 299.333 60.449,298.771 61.053,298.083 61.745 C 297.396 62.437,296.833 63.045,296.833 63.097 C 296.833 63.148,296.740 63.288,296.625 63.408 C 296.510 63.528,296.309 63.781,296.178 63.971 C 296.047 64.160,295.878 64.278,295.803 64.231 C 295.728 64.185,295.667 64.226,295.667 64.322 C 295.667 64.418,295.442 64.712,295.167 64.975 C 294.892 65.238,294.667 65.511,294.667 65.583 C 294.667 65.654,294.104 66.271,293.417 66.954 C 292.729 67.637,292.167 68.265,292.167 68.349 C 292.167 68.433,291.652 69.011,291.022 69.633 C 290.393 70.255,289.826 70.926,289.764 71.124 C 289.701 71.321,289.504 71.529,289.325 71.586 C 289.147 71.643,288.955 71.871,288.899 72.094 C 288.843 72.317,288.730 72.500,288.649 72.500 C 288.567 72.500,288.500 72.644,288.500 72.819 C 288.500 72.995,288.406 73.170,288.292 73.209 C 288.137 73.260,288.083 73.954,288.083 75.917 C 288.083 77.880,288.137 78.573,288.292 78.625 C 288.406 78.663,288.500 78.801,288.500 78.931 C 288.500 79.060,288.570 79.167,288.655 79.167 C 288.741 79.167,288.862 79.329,288.926 79.528 C 289.091 80.050,290.561 81.467,291.068 81.595 C 291.306 81.654,291.500 81.770,291.500 81.851 C 291.500 81.933,291.644 82.000,291.819 82.000 C 291.995 82.000,292.170 82.094,292.208 82.208 C 292.260 82.363,292.920 82.417,294.750 82.417 C 296.579 82.417,297.240 82.363,297.291 82.208 C 297.330 82.094,297.467 82.000,297.597 82.000 C 297.727 82.000,297.833 81.925,297.833 81.833 C 297.833 81.742,297.973 81.667,298.143 81.667 C 298.314 81.667,298.594 81.479,298.766 81.250 C 298.938 81.021,299.162 80.833,299.264 80.833 C 299.516 80.833,300.167 80.254,300.167 80.029 C 300.167 79.928,300.654 79.361,301.250 78.768 C 301.846 78.176,302.333 77.642,302.333 77.583 C 302.333 77.459,302.837 76.874,303.367 76.383 C 303.486 76.273,303.673 76.085,303.784 75.966 C 303.894 75.847,304.081 75.660,304.200 75.550 C 304.531 75.244,304.833 74.859,304.833 74.745 C 304.833 74.689,305.321 74.158,305.917 73.565 C 306.512 72.972,307.000 72.413,307.000 72.323 C 307.000 72.232,307.563 71.607,308.250 70.933 C 308.938 70.258,309.500 69.590,309.500 69.448 C 309.500 69.306,309.646 69.143,309.825 69.086 C 310.003 69.029,310.195 68.841,310.250 68.667 C 310.305 68.493,310.497 68.304,310.675 68.247 C 310.854 68.191,311.000 68.080,311.000 68.001 C 311.000 67.809,311.484 67.333,311.679 67.333 C 311.764 67.333,311.833 67.418,311.833 67.522 C 311.833 67.626,312.096 67.958,312.417 68.261 C 312.737 68.563,313.000 68.888,313.000 68.982 C 313.000 69.077,313.300 69.451,313.667 69.814 C 314.033 70.177,314.333 70.555,314.333 70.654 C 314.333 70.752,314.403 70.833,314.489 70.833 C 314.574 70.833,314.691 70.979,314.747 71.158 C 314.804 71.337,314.997 71.529,315.175 71.586 C 315.354 71.643,315.500 71.808,315.500 71.954 C 315.500 72.099,315.800 72.504,316.167 72.852 C 316.533 73.201,316.833 73.566,316.833 73.663 C 316.833 73.760,317.086 74.084,317.394 74.384 C 317.702 74.683,318.006 75.091,318.069 75.289 C 318.132 75.487,318.326 75.695,318.500 75.750 C 318.674 75.805,318.863 75.997,318.919 76.175 C 318.976 76.354,319.092 76.500,319.178 76.500 C 319.263 76.500,319.333 76.585,319.333 76.689 C 319.333 76.792,319.596 77.125,319.917 77.427 C 320.237 77.730,320.500 78.055,320.500 78.149 C 320.500 78.243,320.800 78.617,321.167 78.980 C 321.533 79.344,321.833 79.687,321.833 79.744 C 321.833 79.861,322.141 80.250,322.470 80.550 C 322.591 80.660,322.848 80.919,323.042 81.125 C 323.235 81.331,323.495 81.500,323.619 81.500 C 323.742 81.500,323.887 81.613,323.940 81.750 C 323.992 81.888,324.178 82.000,324.351 82.000 C 324.525 82.000,324.667 82.084,324.667 82.186 C 324.667 82.295,324.840 82.339,325.083 82.293 C 325.313 82.249,325.500 82.277,325.500 82.356 C 325.500 82.435,326.400 82.500,327.500 82.500 C 328.600 82.500,329.500 82.432,329.500 82.349 C 329.500 82.266,329.652 82.238,329.838 82.286 C 330.050 82.342,330.282 82.252,330.463 82.044 C 330.621 81.863,330.919 81.661,331.125 81.596 C 331.331 81.531,331.500 81.408,331.500 81.322 C 331.500 81.237,331.580 81.167,331.679 81.167 C 331.845 81.167,331.982 81.068,332.536 80.550 C 332.925 80.186,333.167 79.850,333.167 79.674 C 333.167 79.578,333.238 79.500,333.326 79.500 C 333.413 79.500,333.534 79.237,333.594 78.917 C 333.655 78.596,333.770 78.333,333.852 78.333 C 333.933 78.333,334.000 78.108,334.000 77.833 C 334.000 77.558,334.075 77.333,334.167 77.333 C 334.266 77.333,334.333 76.694,334.333 75.750 C 334.333 74.806,334.266 74.167,334.167 74.167 C 334.075 74.167,334.000 73.942,334.000 73.667 C 334.000 73.392,333.925 73.167,333.833 73.167 C 333.742 73.167,333.667 73.014,333.667 72.828 C 333.667 72.642,333.554 72.446,333.417 72.394 C 333.279 72.341,333.167 72.190,333.167 72.058 C 333.167 71.925,332.979 71.644,332.750 71.431 C 332.521 71.219,332.333 70.960,332.333 70.856 C 332.333 70.752,332.263 70.667,332.178 70.667 C 332.092 70.667,331.973 70.511,331.913 70.321 C 331.852 70.131,331.761 70.017,331.710 70.068 C 331.601 70.177,331.000 69.521,331.000 69.294 C 331.000 69.209,330.737 68.884,330.417 68.572 C 330.096 68.261,329.833 67.941,329.833 67.863 C 329.833 67.784,329.533 67.414,329.167 67.040 C 328.800 66.666,328.500 66.313,328.500 66.256 C 328.500 66.198,328.331 65.971,328.125 65.750 C 327.532 65.116,327.333 64.857,327.332 64.715 C 327.331 64.643,327.032 64.321,326.667 64.000 C 326.302 63.679,326.003 63.327,326.002 63.216 C 326.001 63.106,325.737 62.761,325.417 62.450 C 325.096 62.138,324.833 61.825,324.833 61.755 C 324.833 61.685,324.533 61.327,324.167 60.961 C 323.800 60.594,323.500 60.222,323.500 60.133 C 323.500 60.045,323.237 59.717,322.917 59.406 C 322.596 59.094,322.333 58.797,322.333 58.746 C 322.333 58.618,322.004 58.228,321.458 57.712 C 321.206 57.473,321.000 57.209,321.000 57.125 C 321.000 57.041,320.737 56.717,320.417 56.406 C 320.096 56.094,319.833 55.760,319.833 55.663 C 319.833 55.566,319.533 55.201,319.167 54.852 C 318.800 54.504,318.500 54.099,318.500 53.954 C 318.500 53.808,318.354 53.643,318.175 53.586 C 317.997 53.529,317.804 53.337,317.747 53.158 C 317.691 52.979,317.574 52.833,317.489 52.833 C 317.403 52.833,317.333 52.751,317.333 52.650 C 317.333 52.549,316.958 52.100,316.500 51.651 C 316.042 51.202,315.667 50.758,315.667 50.665 C 315.667 50.571,315.414 50.249,315.106 49.950 C 314.798 49.650,314.494 49.243,314.431 49.044 C 314.368 48.846,314.174 48.639,314.000 48.583 C 313.826 48.528,313.637 48.337,313.581 48.158 C 313.524 47.979,313.408 47.833,313.322 47.833 C 313.237 47.833,313.167 47.748,313.167 47.645 C 313.167 47.541,312.904 47.208,312.583 46.906 C 312.262 46.603,312.000 46.276,312.000 46.179 C 312.000 46.082,311.775 45.788,311.500 45.525 C 311.225 45.262,311.000 44.975,311.000 44.887 C 311.000 44.799,310.813 44.564,310.583 44.364 C 310.354 44.165,310.167 43.932,310.167 43.846 C 310.167 43.760,310.017 43.642,309.833 43.583 C 309.650 43.525,309.500 43.359,309.500 43.215 C 309.500 43.071,309.275 42.738,309.000 42.475 C 308.725 42.212,308.500 41.920,308.500 41.826 C 308.500 41.731,308.173 41.336,307.773 40.948 C 307.373 40.559,306.994 40.078,306.931 39.879 C 306.868 39.680,306.674 39.472,306.500 39.417 C 306.326 39.361,306.132 39.154,306.069 38.956 C 306.006 38.757,305.702 38.350,305.394 38.050 C 305.086 37.751,304.833 37.427,304.833 37.330 C 304.833 37.233,304.533 36.868,304.167 36.519 C 303.800 36.170,303.500 35.812,303.500 35.723 C 303.500 35.633,303.331 35.402,303.125 35.208 C 302.640 34.753,302.333 34.376,302.333 34.235 C 302.333 34.173,302.071 33.875,301.750 33.573 C 301.429 33.270,301.167 32.945,301.167 32.851 C 301.167 32.757,300.867 32.383,300.500 32.020 C 300.133 31.656,299.833 31.313,299.833 31.256 C 299.833 31.142,299.536 30.762,299.203 30.450 C 298.649 29.932,298.511 29.833,298.345 29.833 C 298.247 29.833,298.167 29.760,298.167 29.670 C 298.167 29.580,297.979 29.459,297.750 29.402 C 297.521 29.344,297.333 29.230,297.333 29.149 C 297.333 29.067,297.146 29.000,296.917 29.000 C 296.688 29.000,296.500 28.925,296.500 28.833 C 296.500 28.731,295.667 28.667,294.333 28.667 C 293.000 28.667,292.167 28.731,292.167 28.833 M342.667 28.833 C 342.667 28.925,342.479 29.000,342.250 29.000 C 342.021 29.000,341.833 29.069,341.833 29.153 C 341.833 29.238,341.619 29.354,341.356 29.412 C 341.094 29.469,340.719 29.700,340.524 29.925 C 340.329 30.150,340.098 30.333,340.012 30.333 C 339.926 30.333,339.809 30.479,339.753 30.658 C 339.696 30.837,339.512 31.027,339.345 31.080 C 339.175 31.134,338.995 31.400,338.938 31.683 C 338.882 31.964,338.762 32.142,338.669 32.085 C 338.572 32.025,338.500 32.157,338.500 32.393 C 338.500 32.620,338.406 32.837,338.292 32.875 C 338.138 32.926,338.083 33.570,338.083 35.333 C 338.083 37.096,338.138 37.740,338.292 37.792 C 338.406 37.830,338.500 38.042,338.500 38.264 C 338.500 38.485,338.570 38.667,338.655 38.667 C 338.741 38.667,338.864 38.835,338.929 39.042 C 338.994 39.248,339.187 39.538,339.357 39.686 C 339.527 39.834,339.667 40.037,339.667 40.137 C 339.667 40.237,339.854 40.506,340.083 40.735 C 340.313 40.964,340.500 41.224,340.500 41.314 C 340.500 41.403,340.688 41.623,340.917 41.804 C 341.146 41.984,341.333 42.211,341.333 42.308 C 341.333 42.405,341.521 42.672,341.750 42.902 C 341.979 43.131,342.167 43.393,342.167 43.485 C 342.167 43.577,342.354 43.839,342.583 44.068 C 342.813 44.297,343.000 44.558,343.000 44.647 C 343.000 44.736,343.188 44.957,343.417 45.137 C 343.646 45.317,343.833 45.544,343.833 45.641 C 343.833 45.739,344.021 46.006,344.250 46.235 C 344.479 46.464,344.667 46.727,344.667 46.818 C 344.667 46.910,344.854 47.172,345.083 47.402 C 345.313 47.631,345.500 47.891,345.500 47.980 C 345.500 48.070,345.688 48.290,345.917 48.470 C 346.146 48.650,346.333 48.908,346.333 49.042 C 346.333 49.177,346.516 49.424,346.740 49.592 C 346.964 49.760,347.190 50.070,347.243 50.282 C 347.296 50.494,347.413 50.667,347.503 50.667 C 347.593 50.667,347.667 50.747,347.667 50.845 C 347.667 50.943,347.760 51.128,347.875 51.256 C 348.336 51.771,348.500 51.991,348.500 52.099 C 348.500 52.161,348.688 52.386,348.917 52.598 C 349.146 52.810,349.333 53.031,349.333 53.087 C 349.333 53.144,349.427 53.295,349.542 53.423 C 349.994 53.928,350.167 54.157,350.167 54.255 C 350.167 54.311,350.260 54.462,350.375 54.589 C 350.824 55.090,351.000 55.323,351.000 55.418 C 351.000 55.472,351.188 55.690,351.417 55.902 C 351.646 56.114,351.833 56.341,351.833 56.406 C 351.833 56.471,351.927 56.628,352.042 56.756 C 352.503 57.271,352.667 57.491,352.667 57.599 C 352.667 57.661,352.854 57.886,353.083 58.098 C 353.313 58.310,353.500 58.566,353.500 58.667 C 353.500 58.767,353.688 59.023,353.917 59.235 C 354.146 59.448,354.333 59.707,354.333 59.811 C 354.333 59.915,354.403 60.000,354.489 60.000 C 354.574 60.000,354.696 60.162,354.759 60.361 C 354.822 60.559,355.052 60.900,355.270 61.118 L 355.667 61.515 355.667 69.841 C 355.667 75.280,355.724 78.167,355.833 78.167 C 355.925 78.167,356.000 78.392,356.000 78.667 C 356.000 78.942,356.075 79.167,356.167 79.167 C 356.258 79.167,356.333 79.319,356.333 79.505 C 356.333 79.691,356.446 79.887,356.583 79.940 C 356.721 79.992,356.833 80.138,356.833 80.263 C 356.833 80.560,358.274 82.000,358.570 82.000 C 358.695 82.000,358.841 82.112,358.894 82.250 C 358.946 82.387,359.142 82.500,359.328 82.500 C 359.514 82.500,359.667 82.575,359.667 82.667 C 359.667 82.758,359.854 82.833,360.083 82.833 C 360.313 82.833,360.500 82.908,360.500 83.000 C 360.500 83.101,361.250 83.167,362.417 83.167 C 363.583 83.167,364.333 83.101,364.333 83.000 C 364.333 82.908,364.521 82.833,364.750 82.833 C 364.979 82.833,365.167 82.766,365.167 82.685 C 365.167 82.603,365.360 82.488,365.596 82.428 C 365.985 82.331,368.167 80.340,368.167 80.083 C 368.167 80.024,368.279 79.864,368.417 79.726 C 368.554 79.589,368.667 79.294,368.667 79.071 C 368.667 78.849,368.742 78.667,368.833 78.667 C 368.925 78.667,369.000 78.367,369.000 78.000 C 369.000 77.633,369.075 77.333,369.167 77.333 C 369.275 77.333,369.333 74.646,369.333 69.604 C 369.333 61.385,369.362 60.900,369.853 60.744 C 370.026 60.689,370.167 60.510,370.167 60.345 C 370.167 60.181,370.354 59.906,370.583 59.734 C 370.813 59.562,371.000 59.330,371.000 59.218 C 371.000 59.106,371.179 58.837,371.397 58.618 C 371.615 58.400,371.844 58.063,371.905 57.869 C 371.967 57.676,372.163 57.471,372.342 57.414 C 372.521 57.357,372.667 57.187,372.667 57.036 C 372.667 56.884,372.866 56.589,373.110 56.379 C 373.354 56.170,373.507 55.951,373.449 55.894 C 373.392 55.836,373.567 55.582,373.839 55.328 C 374.111 55.074,374.333 54.794,374.333 54.706 C 374.333 54.619,374.521 54.406,374.750 54.234 C 374.979 54.062,375.167 53.830,375.167 53.718 C 375.167 53.606,375.354 53.328,375.583 53.098 C 375.813 52.869,376.000 52.607,376.000 52.515 C 376.000 52.423,376.188 52.161,376.417 51.932 C 376.646 51.703,376.833 51.447,376.833 51.364 C 376.833 51.281,377.016 51.076,377.240 50.908 C 377.464 50.740,377.690 50.430,377.743 50.218 C 377.796 50.006,377.913 49.833,378.003 49.833 C 378.093 49.833,378.167 49.753,378.167 49.655 C 378.167 49.557,378.260 49.372,378.375 49.244 C 378.823 48.744,379.000 48.510,379.000 48.416 C 379.000 48.363,379.188 48.117,379.417 47.869 C 379.646 47.622,379.833 47.359,379.833 47.285 C 379.833 47.211,380.021 46.977,380.250 46.765 C 380.479 46.552,380.667 46.325,380.667 46.261 C 380.667 46.196,380.760 46.038,380.875 45.911 C 381.323 45.410,381.500 45.177,381.500 45.083 C 381.500 45.029,381.688 44.783,381.917 44.536 C 382.146 44.289,382.333 44.026,382.333 43.952 C 382.333 43.878,382.521 43.644,382.750 43.431 C 382.979 43.219,383.167 42.992,383.167 42.927 C 383.167 42.863,383.260 42.705,383.375 42.577 C 383.823 42.077,384.000 41.843,384.000 41.750 C 384.000 41.696,384.188 41.450,384.417 41.203 C 384.646 40.956,384.833 40.693,384.833 40.619 C 384.833 40.545,385.021 40.310,385.250 40.098 C 385.479 39.886,385.667 39.627,385.667 39.523 C 385.667 39.418,385.733 39.333,385.815 39.333 C 385.896 39.333,386.012 39.071,386.072 38.750 C 386.133 38.429,386.235 38.166,386.299 38.165 C 386.364 38.165,386.510 37.962,386.625 37.715 C 386.881 37.164,386.918 33.167,386.667 33.167 C 386.575 33.167,386.500 33.054,386.500 32.917 C 386.500 32.779,386.434 32.667,386.354 32.667 C 386.274 32.667,386.164 32.446,386.110 32.176 C 385.979 31.518,383.982 29.521,383.324 29.390 C 383.054 29.336,382.833 29.226,382.833 29.146 C 382.833 29.066,382.646 29.000,382.417 29.000 C 382.188 29.000,382.000 28.925,382.000 28.833 C 382.000 28.732,381.250 28.667,380.083 28.667 C 378.917 28.667,378.167 28.732,378.167 28.833 C 378.167 28.925,377.979 29.000,377.750 29.000 C 377.521 29.000,377.333 29.069,377.333 29.153 C 377.333 29.238,377.123 29.353,376.866 29.410 C 376.609 29.466,376.292 29.660,376.162 29.839 C 376.033 30.019,375.842 30.167,375.739 30.167 C 375.485 30.167,374.833 30.745,374.833 30.970 C 374.833 31.070,374.646 31.339,374.417 31.568 C 374.188 31.797,374.000 32.064,374.000 32.160 C 374.000 32.257,373.813 32.499,373.583 32.698 C 373.354 32.897,373.167 33.161,373.167 33.285 C 373.167 33.409,373.054 33.554,372.917 33.606 C 372.779 33.659,372.667 33.810,372.667 33.942 C 372.667 34.075,372.479 34.356,372.250 34.569 C 372.021 34.781,371.833 35.008,371.833 35.073 C 371.833 35.137,371.740 35.295,371.625 35.423 C 371.164 35.937,371.000 36.158,371.000 36.266 C 371.000 36.328,370.813 36.552,370.583 36.765 C 370.354 36.977,370.167 37.233,370.167 37.333 C 370.167 37.434,369.979 37.690,369.750 37.902 C 369.521 38.114,369.333 38.341,369.333 38.406 C 369.333 38.471,369.240 38.628,369.125 38.756 C 368.664 39.271,368.500 39.491,368.500 39.599 C 368.500 39.661,368.313 39.886,368.083 40.098 C 367.854 40.310,367.667 40.566,367.667 40.667 C 367.667 40.767,367.479 41.023,367.250 41.235 C 367.021 41.448,366.833 41.675,366.833 41.739 C 366.833 41.804,366.740 41.962,366.625 42.089 C 366.164 42.604,366.000 42.825,366.000 42.932 C 366.000 42.994,365.813 43.219,365.583 43.431 C 365.354 43.644,365.167 43.925,365.167 44.058 C 365.167 44.190,365.054 44.341,364.917 44.394 C 364.779 44.446,364.667 44.637,364.667 44.817 C 364.667 44.997,364.521 45.191,364.342 45.247 C 364.163 45.304,363.967 45.509,363.905 45.703 C 363.844 45.897,363.615 46.234,363.397 46.452 C 363.179 46.670,363.000 46.925,363.000 47.019 C 363.000 47.114,362.889 47.302,362.753 47.437 C 362.501 47.690,361.500 46.930,361.500 46.486 C 361.500 46.393,361.313 46.144,361.083 45.931 C 360.854 45.719,360.667 45.460,360.667 45.356 C 360.667 45.252,360.597 45.167,360.511 45.167 C 360.426 45.167,360.304 45.004,360.241 44.806 C 360.178 44.607,359.948 44.266,359.730 44.048 C 359.512 43.830,359.333 43.560,359.333 43.449 C 359.333 43.337,359.146 43.105,358.917 42.933 C 358.688 42.761,358.500 42.532,358.500 42.423 C 358.500 42.315,358.313 42.064,358.083 41.864 C 357.854 41.665,357.667 41.423,357.667 41.327 C 357.667 41.230,357.479 40.964,357.250 40.735 C 357.021 40.506,356.833 40.227,356.833 40.115 C 356.833 40.004,356.646 39.772,356.417 39.600 C 356.188 39.427,356.000 39.198,356.000 39.090 C 356.000 38.982,355.813 38.730,355.583 38.531 C 355.354 38.332,355.167 38.090,355.167 37.994 C 355.167 37.897,354.979 37.631,354.750 37.402 C 354.521 37.172,354.333 36.894,354.333 36.782 C 354.333 36.670,354.146 36.438,353.917 36.266 C 353.688 36.094,353.500 35.819,353.500 35.655 C 353.500 35.490,353.354 35.309,353.175 35.253 C 352.997 35.196,352.798 34.985,352.735 34.783 C 352.671 34.582,352.480 34.295,352.309 34.147 C 352.139 33.999,352.000 33.796,352.000 33.696 C 352.000 33.597,351.821 33.337,351.603 33.118 C 351.385 32.900,351.156 32.563,351.095 32.369 C 351.033 32.176,350.837 31.971,350.658 31.914 C 350.479 31.857,350.333 31.695,350.333 31.554 C 350.333 31.268,348.950 29.833,348.675 29.833 C 348.579 29.833,348.500 29.760,348.500 29.670 C 348.500 29.580,348.313 29.459,348.083 29.402 C 347.854 29.344,347.667 29.230,347.667 29.149 C 347.667 29.067,347.404 29.000,347.083 29.000 C 346.762 29.000,346.500 28.925,346.500 28.833 C 346.500 28.732,345.750 28.667,344.583 28.667 C 343.417 28.667,342.667 28.732,342.667 28.833 M172.625 29.442 C 172.373 29.486,172.167 29.592,172.167 29.678 C 172.167 29.763,172.017 29.833,171.833 29.833 C 171.650 29.833,171.500 29.900,171.500 29.982 C 171.500 30.064,171.317 30.176,171.094 30.232 C 170.871 30.288,170.643 30.479,170.587 30.656 C 170.530 30.834,170.319 31.002,170.117 31.031 C 169.887 31.064,169.731 31.220,169.698 31.450 C 169.669 31.652,169.509 31.861,169.343 31.914 C 169.175 31.967,168.995 32.235,168.938 32.516 C 168.882 32.797,168.762 32.976,168.669 32.918 C 168.572 32.858,168.500 32.995,168.500 33.240 C 168.500 33.475,168.430 33.667,168.344 33.667 C 168.257 33.667,168.136 34.004,168.075 34.417 C 168.013 34.829,167.896 35.167,167.814 35.167 C 167.733 35.167,167.667 35.279,167.667 35.417 C 167.667 35.554,167.593 35.667,167.502 35.667 C 167.411 35.667,167.289 35.967,167.231 36.333 C 167.172 36.700,167.059 37.000,166.979 37.000 C 166.899 37.000,166.833 37.150,166.833 37.333 C 166.833 37.517,166.764 37.667,166.680 37.667 C 166.596 37.667,166.477 37.892,166.417 38.167 C 166.356 38.442,166.238 38.667,166.153 38.667 C 166.069 38.667,166.000 38.854,166.000 39.083 C 166.000 39.313,165.933 39.500,165.852 39.500 C 165.770 39.500,165.655 39.762,165.594 40.083 C 165.534 40.404,165.413 40.667,165.326 40.667 C 165.238 40.667,165.167 40.854,165.167 41.083 C 165.167 41.313,165.095 41.500,165.008 41.500 C 164.920 41.500,164.799 41.762,164.739 42.083 C 164.679 42.404,164.563 42.667,164.481 42.667 C 164.400 42.667,164.333 42.854,164.333 43.083 C 164.333 43.313,164.264 43.500,164.180 43.500 C 164.096 43.500,163.977 43.725,163.917 44.000 C 163.856 44.275,163.738 44.500,163.653 44.500 C 163.569 44.500,163.500 44.650,163.500 44.833 C 163.500 45.017,163.435 45.167,163.355 45.167 C 163.275 45.167,163.161 45.467,163.103 45.833 C 163.044 46.200,162.940 46.500,162.872 46.500 C 162.710 46.500,162.370 47.277,162.233 47.960 C 162.174 48.257,162.059 48.500,161.979 48.500 C 161.899 48.500,161.833 48.612,161.833 48.750 C 161.833 48.887,161.768 49.000,161.688 49.000 C 161.608 49.000,161.495 49.300,161.436 49.667 C 161.377 50.033,161.255 50.333,161.165 50.333 C 161.074 50.333,161.000 50.483,161.000 50.667 C 161.000 50.850,160.926 51.000,160.835 51.000 C 160.745 51.000,160.623 51.300,160.564 51.667 C 160.505 52.033,160.392 52.333,160.312 52.333 C 160.232 52.333,160.167 52.446,160.167 52.583 C 160.167 52.721,160.096 52.833,160.010 52.833 C 159.924 52.833,159.803 53.171,159.741 53.583 C 159.679 53.996,159.562 54.333,159.481 54.333 C 159.400 54.333,159.333 54.446,159.333 54.583 C 159.333 54.721,159.259 54.833,159.169 54.833 C 159.078 54.833,158.956 55.133,158.897 55.500 C 158.839 55.867,158.725 56.167,158.645 56.167 C 158.565 56.167,158.500 56.317,158.500 56.500 C 158.500 56.683,158.425 56.833,158.333 56.833 C 158.242 56.833,158.167 56.946,158.167 57.083 C 158.167 57.692,157.854 57.254,157.750 56.500 C 157.687 56.042,157.567 55.667,157.484 55.667 C 157.401 55.667,157.333 55.554,157.333 55.417 C 157.333 55.279,157.265 55.167,157.182 55.167 C 157.099 55.167,156.980 54.792,156.917 54.333 C 156.854 53.875,156.734 53.500,156.651 53.500 C 156.568 53.500,156.500 53.313,156.500 53.083 C 156.500 52.854,156.430 52.667,156.344 52.667 C 156.257 52.667,156.136 52.329,156.075 51.917 C 156.013 51.504,155.896 51.167,155.814 51.167 C 155.733 51.167,155.667 50.979,155.667 50.750 C 155.667 50.521,155.601 50.333,155.521 50.333 C 155.441 50.333,155.328 50.033,155.269 49.667 C 155.211 49.300,155.089 49.000,154.998 49.000 C 154.907 49.000,154.833 48.813,154.833 48.583 C 154.833 48.354,154.765 48.167,154.682 48.167 C 154.599 48.167,154.480 47.792,154.417 47.333 C 154.354 46.875,154.234 46.500,154.151 46.500 C 154.068 46.500,154.000 46.387,154.000 46.250 C 154.000 46.112,153.932 46.000,153.849 46.000 C 153.766 46.000,153.646 45.625,153.583 45.167 C 153.520 44.708,153.401 44.333,153.318 44.333 C 153.235 44.333,153.167 44.146,153.167 43.917 C 153.167 43.688,153.100 43.500,153.019 43.500 C 152.938 43.500,152.821 43.163,152.759 42.750 C 152.697 42.337,152.576 42.000,152.490 42.000 C 152.404 42.000,152.333 41.813,152.333 41.583 C 152.333 41.354,152.268 41.167,152.188 41.167 C 152.109 41.167,152.000 40.899,151.947 40.571 C 151.837 39.894,151.474 39.000,151.308 39.000 C 151.248 39.000,151.146 38.625,151.083 38.167 C 151.020 37.708,150.901 37.333,150.818 37.333 C 150.735 37.333,150.667 37.146,150.667 36.917 C 150.667 36.688,150.593 36.500,150.502 36.500 C 150.411 36.500,150.289 36.200,150.231 35.833 C 150.172 35.467,150.059 35.167,149.979 35.167 C 149.899 35.167,149.833 34.979,149.833 34.750 C 149.833 34.521,149.767 34.333,149.686 34.333 C 149.604 34.333,149.487 33.996,149.425 33.583 C 149.364 33.171,149.243 32.833,149.156 32.833 C 149.070 32.833,149.000 32.755,149.000 32.659 C 149.000 32.384,147.565 31.000,147.280 31.000 C 147.138 31.000,146.977 30.858,146.922 30.684 C 146.860 30.488,146.602 30.327,146.244 30.260 C 145.927 30.200,145.667 30.080,145.667 29.992 C 145.667 29.905,145.404 29.833,145.083 29.833 C 144.762 29.833,144.500 29.758,144.500 29.667 C 144.500 29.569,143.944 29.500,143.167 29.500 C 142.389 29.500,141.833 29.569,141.833 29.667 C 141.833 29.758,141.571 29.833,141.250 29.833 C 140.929 29.833,140.667 29.902,140.667 29.987 C 140.667 30.071,140.456 30.186,140.199 30.243 C 139.942 30.299,139.625 30.493,139.496 30.673 C 139.366 30.853,139.164 31.000,139.047 31.000 C 138.929 31.000,138.833 31.087,138.833 31.194 C 138.833 31.301,138.785 31.340,138.725 31.281 C 138.597 31.152,138.000 31.803,138.000 32.072 C 138.000 32.175,137.853 32.366,137.673 32.496 C 137.493 32.625,137.299 32.942,137.243 33.199 C 137.186 33.456,137.071 33.667,136.987 33.667 C 136.902 33.667,136.833 33.854,136.833 34.083 C 136.833 34.313,136.758 34.500,136.667 34.500 C 136.566 34.500,136.500 35.222,136.500 36.333 C 136.500 37.444,136.566 38.167,136.667 38.167 C 136.758 38.167,136.833 38.354,136.833 38.583 C 136.833 38.813,136.901 39.000,136.984 39.000 C 137.067 39.000,137.187 39.375,137.250 39.833 C 137.313 40.292,137.433 40.667,137.516 40.667 C 137.599 40.667,137.667 40.779,137.667 40.917 C 137.667 41.054,137.735 41.167,137.818 41.167 C 137.901 41.167,138.020 41.542,138.083 42.000 C 138.146 42.458,138.266 42.833,138.349 42.833 C 138.432 42.833,138.500 43.021,138.500 43.250 C 138.500 43.479,138.567 43.667,138.648 43.667 C 138.730 43.667,138.847 43.938,138.910 44.271 C 138.972 44.603,139.093 45.015,139.178 45.187 C 139.263 45.359,139.399 45.634,139.479 45.798 C 139.560 45.962,139.679 46.412,139.744 46.798 C 139.809 47.184,139.931 47.500,140.015 47.500 C 140.098 47.500,140.167 47.650,140.167 47.833 C 140.167 48.017,140.235 48.167,140.318 48.167 C 140.401 48.167,140.520 48.542,140.583 49.000 C 140.646 49.458,140.766 49.833,140.849 49.833 C 140.932 49.833,141.000 50.021,141.000 50.250 C 141.000 50.479,141.074 50.667,141.165 50.667 C 141.255 50.667,141.377 50.967,141.436 51.333 C 141.495 51.700,141.608 52.000,141.688 52.000 C 141.768 52.000,141.833 52.188,141.833 52.417 C 141.833 52.646,141.908 52.833,142.000 52.833 C 142.092 52.833,142.167 53.002,142.168 53.208 C 142.168 53.415,142.281 53.798,142.418 54.061 C 142.555 54.323,142.667 54.680,142.667 54.852 C 142.667 55.025,142.737 55.167,142.823 55.167 C 142.909 55.167,143.030 55.504,143.092 55.917 C 143.154 56.329,143.271 56.667,143.352 56.667 C 143.434 56.667,143.500 56.817,143.500 57.000 C 143.500 57.183,143.568 57.333,143.651 57.333 C 143.734 57.333,143.854 57.708,143.917 58.167 C 143.980 58.625,144.099 59.000,144.182 59.000 C 144.265 59.000,144.333 59.188,144.333 59.417 C 144.333 59.646,144.399 59.833,144.479 59.833 C 144.559 59.833,144.672 60.133,144.731 60.500 C 144.789 60.867,144.911 61.167,145.002 61.167 C 145.093 61.167,145.167 61.354,145.167 61.583 C 145.167 61.813,145.235 62.000,145.318 62.000 C 145.401 62.000,145.520 62.375,145.583 62.833 C 145.646 63.292,145.766 63.667,145.849 63.667 C 145.932 63.667,146.000 63.779,146.000 63.917 C 146.000 64.054,146.068 64.167,146.151 64.167 C 146.234 64.167,146.354 64.542,146.417 65.000 C 146.480 65.458,146.599 65.833,146.682 65.833 C 146.765 65.833,146.833 66.021,146.833 66.250 C 146.833 66.479,146.904 66.667,146.990 66.667 C 147.076 66.667,147.197 67.004,147.259 67.417 C 147.321 67.829,147.438 68.167,147.519 68.167 C 147.600 68.167,147.667 68.354,147.667 68.583 C 147.667 68.813,147.732 69.000,147.812 69.000 C 147.892 69.000,148.005 69.300,148.064 69.667 C 148.123 70.033,148.245 70.333,148.335 70.333 C 148.426 70.333,148.500 70.521,148.500 70.750 C 148.500 70.979,148.568 71.167,148.651 71.167 C 148.734 71.167,148.854 71.542,148.917 72.000 C 148.980 72.458,149.099 72.833,149.182 72.833 C 149.265 72.833,149.333 73.021,149.333 73.250 C 149.333 73.479,149.407 73.667,149.498 73.667 C 149.589 73.667,149.711 73.967,149.769 74.333 C 149.828 74.700,149.941 75.000,150.021 75.000 C 150.101 75.000,150.167 75.188,150.167 75.417 C 150.167 75.646,150.233 75.833,150.314 75.833 C 150.396 75.833,150.513 76.171,150.575 76.583 C 150.636 76.996,150.757 77.333,150.844 77.333 C 150.930 77.333,151.000 77.521,151.000 77.750 C 151.000 77.979,151.075 78.167,151.167 78.167 C 151.258 78.167,151.333 78.357,151.333 78.589 C 151.333 78.821,151.446 79.054,151.583 79.106 C 151.721 79.159,151.833 79.306,151.833 79.432 C 151.833 79.736,153.788 81.667,154.095 81.667 C 154.226 81.667,154.333 81.742,154.333 81.833 C 154.333 81.925,154.440 82.000,154.569 82.000 C 154.699 82.000,154.837 82.094,154.875 82.208 C 154.926 82.362,155.570 82.417,157.333 82.417 C 159.096 82.417,159.740 82.362,159.792 82.208 C 159.830 82.094,159.967 82.000,160.097 82.000 C 160.227 82.000,160.333 81.934,160.333 81.854 C 160.333 81.774,160.556 81.664,160.828 81.609 C 161.359 81.503,163.167 79.816,163.167 79.427 C 163.167 79.304,163.279 79.159,163.417 79.106 C 163.554 79.054,163.667 78.858,163.667 78.672 C 163.667 78.486,163.742 78.333,163.833 78.333 C 163.925 78.333,164.000 78.146,164.000 77.917 C 164.000 77.688,164.069 77.500,164.153 77.500 C 164.238 77.500,164.356 77.275,164.417 77.000 C 164.477 76.725,164.596 76.500,164.680 76.500 C 164.764 76.500,164.833 76.313,164.833 76.083 C 164.833 75.854,164.900 75.667,164.981 75.667 C 165.063 75.667,165.179 75.404,165.239 75.083 C 165.299 74.763,165.420 74.500,165.508 74.500 C 165.595 74.500,165.667 74.313,165.667 74.083 C 165.667 73.854,165.738 73.667,165.826 73.667 C 165.913 73.667,166.034 73.404,166.094 73.083 C 166.155 72.762,166.270 72.500,166.352 72.500 C 166.433 72.500,166.500 72.387,166.500 72.250 C 166.500 72.112,166.565 72.000,166.645 72.000 C 166.725 72.000,166.839 71.700,166.897 71.333 C 166.956 70.967,167.078 70.667,167.169 70.667 C 167.259 70.667,167.333 70.517,167.333 70.333 C 167.333 70.150,167.399 70.000,167.479 70.000 C 167.559 70.000,167.672 69.700,167.731 69.333 C 167.789 68.967,167.893 68.667,167.961 68.667 C 168.124 68.667,168.464 67.890,168.600 67.207 C 168.660 66.910,168.774 66.667,168.854 66.667 C 168.934 66.667,169.000 66.560,169.000 66.431 C 169.000 66.301,169.076 66.169,169.169 66.138 C 169.263 66.107,169.372 65.820,169.412 65.501 C 169.453 65.182,169.564 64.895,169.660 64.863 C 169.755 64.832,169.833 64.662,169.833 64.486 C 169.833 64.310,169.907 64.167,169.998 64.167 C 170.089 64.167,170.211 63.867,170.269 63.500 C 170.328 63.133,170.441 62.833,170.521 62.833 C 170.601 62.833,170.667 62.721,170.667 62.583 C 170.667 62.446,170.737 62.333,170.823 62.333 C 170.909 62.333,171.030 61.996,171.092 61.583 C 171.154 61.171,171.271 60.833,171.352 60.833 C 171.434 60.833,171.500 60.721,171.500 60.583 C 171.500 60.446,171.572 60.333,171.659 60.333 C 171.747 60.333,171.867 60.071,171.928 59.750 C 171.988 59.429,172.104 59.167,172.185 59.167 C 172.267 59.167,172.333 58.979,172.333 58.750 C 172.333 58.521,172.402 58.333,172.487 58.333 C 172.571 58.333,172.690 58.108,172.750 57.833 C 172.810 57.558,172.929 57.333,173.013 57.333 C 173.098 57.333,173.167 57.146,173.167 56.917 C 173.167 56.688,173.233 56.500,173.315 56.500 C 173.396 56.500,173.512 56.237,173.572 55.917 C 173.633 55.596,173.753 55.333,173.841 55.333 C 173.928 55.333,174.000 55.178,174.000 54.988 C 174.000 54.676,174.348 54.167,174.561 54.167 C 174.608 54.167,174.697 54.504,174.759 54.917 C 174.821 55.329,174.938 55.667,175.019 55.667 C 175.100 55.667,175.167 55.779,175.167 55.917 C 175.167 56.054,175.232 56.167,175.312 56.167 C 175.392 56.167,175.505 56.467,175.564 56.833 C 175.623 57.200,175.745 57.500,175.835 57.500 C 175.926 57.500,176.000 57.688,176.000 57.917 C 176.000 58.146,176.066 58.333,176.148 58.333 C 176.229 58.333,176.346 58.671,176.408 59.083 C 176.470 59.496,176.591 59.833,176.677 59.833 C 176.763 59.833,176.833 60.021,176.833 60.250 C 176.833 60.479,176.907 60.667,176.998 60.667 C 177.089 60.667,177.211 60.967,177.269 61.333 C 177.328 61.700,177.441 62.000,177.521 62.000 C 177.601 62.000,177.667 62.188,177.667 62.417 C 177.667 62.646,177.741 62.833,177.831 62.833 C 177.922 62.833,178.044 63.133,178.103 63.500 C 178.161 63.867,178.275 64.167,178.355 64.167 C 178.435 64.167,178.500 64.317,178.500 64.500 C 178.500 64.683,178.565 64.833,178.645 64.833 C 178.725 64.833,178.839 65.133,178.897 65.500 C 178.956 65.867,179.078 66.167,179.169 66.167 C 179.259 66.167,179.333 66.354,179.333 66.583 C 179.333 66.813,179.399 67.000,179.479 67.000 C 179.559 67.000,179.672 67.300,179.731 67.667 C 179.789 68.033,179.911 68.333,180.002 68.333 C 180.093 68.333,180.167 68.521,180.167 68.750 C 180.167 68.979,180.237 69.167,180.323 69.167 C 180.409 69.167,180.530 69.504,180.592 69.917 C 180.654 70.329,180.771 70.667,180.852 70.667 C 180.934 70.667,181.000 70.854,181.000 71.083 C 181.000 71.313,181.074 71.500,181.165 71.500 C 181.255 71.500,181.377 71.800,181.436 72.167 C 181.495 72.533,181.608 72.833,181.688 72.833 C 181.768 72.833,181.833 72.946,181.833 73.083 C 181.833 73.221,181.900 73.333,181.981 73.333 C 182.062 73.333,182.179 73.671,182.241 74.083 C 182.303 74.496,182.424 74.833,182.510 74.833 C 182.596 74.833,182.667 75.021,182.667 75.250 C 182.667 75.479,182.732 75.667,182.812 75.667 C 182.892 75.667,183.005 75.967,183.064 76.333 C 183.123 76.700,183.245 77.000,183.335 77.000 C 183.426 77.000,183.500 77.112,183.500 77.250 C 183.500 77.387,183.566 77.500,183.646 77.500 C 183.726 77.500,183.836 77.723,183.891 77.995 C 183.999 78.538,185.688 80.333,186.091 80.333 C 186.224 80.333,186.333 80.407,186.333 80.498 C 186.333 80.589,186.633 80.711,187.000 80.769 C 187.367 80.828,187.667 80.941,187.667 81.021 C 187.667 81.101,188.604 81.167,189.750 81.167 C 190.896 81.167,191.833 81.101,191.833 81.022 C 191.833 80.942,192.103 80.833,192.432 80.780 C 192.761 80.726,193.155 80.540,193.307 80.365 C 193.459 80.191,193.748 79.996,193.950 79.932 C 194.151 79.868,194.361 79.674,194.417 79.500 C 194.472 79.326,194.663 79.137,194.841 79.081 C 195.020 79.024,195.212 78.795,195.268 78.572 C 195.324 78.349,195.436 78.167,195.518 78.167 C 195.600 78.167,195.667 78.017,195.667 77.833 C 195.667 77.650,195.741 77.500,195.831 77.500 C 195.922 77.500,196.044 77.200,196.103 76.833 C 196.161 76.467,196.275 76.167,196.355 76.167 C 196.435 76.167,196.500 75.979,196.500 75.750 C 196.500 75.521,196.565 75.333,196.645 75.333 C 196.725 75.333,196.839 75.033,196.897 74.667 C 196.956 74.300,197.078 74.000,197.169 74.000 C 197.259 74.000,197.333 73.813,197.333 73.583 C 197.333 73.354,197.400 73.167,197.481 73.167 C 197.562 73.167,197.679 72.829,197.741 72.417 C 197.803 72.004,197.924 71.667,198.010 71.667 C 198.096 71.667,198.167 71.479,198.167 71.250 C 198.167 71.021,198.235 70.833,198.318 70.833 C 198.401 70.833,198.520 70.458,198.583 70.000 C 198.646 69.542,198.766 69.167,198.849 69.167 C 198.932 69.167,199.000 69.054,199.000 68.917 C 199.000 68.779,199.068 68.667,199.151 68.667 C 199.234 68.667,199.354 68.292,199.417 67.833 C 199.480 67.375,199.599 67.000,199.682 67.000 C 199.765 67.000,199.833 66.819,199.833 66.597 C 199.833 66.376,199.910 66.169,200.003 66.138 C 200.096 66.107,200.205 65.820,200.246 65.501 C 200.286 65.182,200.397 64.895,200.493 64.863 C 200.588 64.832,200.667 64.624,200.667 64.403 C 200.667 64.181,200.733 64.000,200.814 64.000 C 200.896 64.000,201.013 63.663,201.075 63.250 C 201.136 62.837,201.257 62.500,201.344 62.500 C 201.430 62.500,201.500 62.313,201.500 62.083 C 201.500 61.854,201.565 61.667,201.645 61.667 C 201.725 61.667,201.839 61.367,201.897 61.000 C 201.956 60.633,202.078 60.333,202.169 60.333 C 202.259 60.333,202.333 60.146,202.333 59.917 C 202.333 59.688,202.401 59.500,202.484 59.500 C 202.567 59.500,202.687 59.125,202.750 58.667 C 202.813 58.208,202.933 57.833,203.016 57.833 C 203.099 57.833,203.167 57.721,203.167 57.583 C 203.167 57.446,203.235 57.333,203.318 57.333 C 203.401 57.333,203.520 56.958,203.583 56.500 C 203.646 56.042,203.766 55.667,203.849 55.667 C 203.932 55.667,204.000 55.479,204.000 55.250 C 204.000 55.021,204.067 54.833,204.148 54.833 C 204.230 54.833,204.347 54.562,204.410 54.229 C 204.520 53.643,204.583 53.472,204.963 52.729 C 205.062 52.534,205.195 52.103,205.257 51.771 C 205.319 51.438,205.437 51.167,205.519 51.167 C 205.600 51.167,205.667 50.979,205.667 50.750 C 205.667 50.521,205.732 50.333,205.812 50.333 C 205.892 50.333,206.005 50.033,206.064 49.667 C 206.123 49.300,206.245 49.000,206.335 49.000 C 206.426 49.000,206.500 48.813,206.500 48.583 C 206.500 48.354,206.568 48.167,206.651 48.167 C 206.734 48.167,206.854 47.792,206.917 47.333 C 206.980 46.875,207.099 46.500,207.182 46.500 C 207.265 46.500,207.333 46.350,207.333 46.167 C 207.333 45.983,207.404 45.833,207.490 45.833 C 207.576 45.833,207.697 45.496,207.759 45.083 C 207.821 44.671,207.938 44.333,208.019 44.333 C 208.100 44.333,208.167 44.146,208.167 43.917 C 208.167 43.688,208.237 43.500,208.323 43.500 C 208.409 43.500,208.530 43.163,208.592 42.750 C 208.654 42.337,208.771 42.000,208.852 42.000 C 208.934 42.000,209.000 41.813,209.000 41.583 C 209.000 41.354,209.065 41.167,209.145 41.167 C 209.225 41.167,209.339 40.867,209.397 40.500 C 209.456 40.133,209.578 39.833,209.669 39.833 C 209.759 39.833,209.833 39.652,209.833 39.431 C 209.833 39.209,209.927 38.997,210.042 38.958 C 210.197 38.907,210.250 38.213,210.250 36.250 C 210.250 34.287,210.197 33.593,210.042 33.542 C 209.927 33.503,209.833 33.328,209.833 33.153 C 209.833 32.977,209.766 32.833,209.685 32.833 C 209.603 32.833,209.489 32.646,209.432 32.417 C 209.374 32.188,209.253 32.000,209.163 32.000 C 209.074 32.000,209.000 31.926,209.000 31.835 C 209.000 31.547,208.437 31.000,208.141 31.000 C 207.984 31.000,207.811 30.858,207.756 30.684 C 207.693 30.488,207.436 30.327,207.078 30.260 C 206.760 30.200,206.500 30.080,206.500 29.992 C 206.500 29.905,206.387 29.833,206.250 29.833 C 206.112 29.833,206.000 29.758,206.000 29.667 C 206.000 29.564,205.139 29.500,203.750 29.500 C 202.361 29.500,201.500 29.564,201.500 29.667 C 201.500 29.758,201.321 29.833,201.101 29.833 C 200.882 29.833,200.659 29.946,200.606 30.083 C 200.554 30.221,200.363 30.333,200.183 30.333 C 200.002 30.333,199.808 30.482,199.750 30.667 C 199.692 30.850,199.516 31.000,199.359 31.000 C 199.063 31.000,198.500 31.547,198.500 31.835 C 198.500 31.926,198.426 32.000,198.337 32.000 C 198.247 32.000,198.126 32.188,198.068 32.417 C 198.011 32.646,197.897 32.833,197.815 32.833 C 197.734 32.833,197.667 32.983,197.667 33.167 C 197.667 33.350,197.599 33.500,197.516 33.500 C 197.433 33.500,197.313 33.875,197.250 34.333 C 197.187 34.792,197.067 35.167,196.984 35.167 C 196.901 35.167,196.833 35.279,196.833 35.417 C 196.833 35.554,196.765 35.667,196.682 35.667 C 196.599 35.667,196.480 36.042,196.417 36.500 C 196.354 36.958,196.234 37.333,196.151 37.333 C 196.068 37.333,196.000 37.521,196.000 37.750 C 196.000 37.979,195.926 38.167,195.835 38.167 C 195.745 38.167,195.623 38.467,195.564 38.833 C 195.505 39.200,195.392 39.500,195.312 39.500 C 195.232 39.500,195.167 39.688,195.167 39.917 C 195.167 40.146,195.100 40.333,195.019 40.333 C 194.938 40.333,194.821 40.671,194.759 41.083 C 194.697 41.496,194.576 41.833,194.490 41.833 C 194.404 41.833,194.333 42.021,194.333 42.250 C 194.333 42.479,194.268 42.667,194.188 42.667 C 194.108 42.667,193.995 42.967,193.936 43.333 C 193.877 43.700,193.755 44.000,193.665 44.000 C 193.574 44.000,193.500 44.188,193.500 44.417 C 193.500 44.646,193.432 44.833,193.349 44.833 C 193.266 44.833,193.146 45.208,193.083 45.667 C 193.020 46.125,192.919 46.500,192.858 46.500 C 192.693 46.500,192.330 47.394,192.220 48.071 C 192.167 48.399,192.058 48.667,191.978 48.667 C 191.899 48.667,191.833 48.854,191.833 49.083 C 191.833 49.313,191.763 49.500,191.677 49.500 C 191.591 49.500,191.470 49.837,191.408 50.250 C 191.346 50.663,191.229 51.000,191.148 51.000 C 191.066 51.000,191.000 51.188,191.000 51.417 C 191.000 51.646,190.935 51.833,190.855 51.833 C 190.775 51.833,190.661 52.133,190.603 52.500 C 190.544 52.867,190.422 53.167,190.331 53.167 C 190.241 53.167,190.167 53.354,190.167 53.583 C 190.167 53.813,190.101 54.000,190.021 54.000 C 189.941 54.000,189.819 54.319,189.750 54.708 L 189.623 55.417 189.454 54.875 C 189.361 54.577,189.221 54.333,189.143 54.333 C 189.064 54.333,189.000 54.146,189.000 53.917 C 189.000 53.688,188.934 53.500,188.852 53.500 C 188.771 53.500,188.654 53.163,188.592 52.750 C 188.530 52.337,188.409 52.000,188.323 52.000 C 188.237 52.000,188.167 51.813,188.167 51.583 C 188.167 51.354,188.093 51.167,188.002 51.167 C 187.911 51.167,187.789 50.867,187.731 50.500 C 187.672 50.133,187.559 49.833,187.479 49.833 C 187.399 49.833,187.333 49.646,187.333 49.417 C 187.333 49.188,187.259 49.000,187.169 49.000 C 187.078 49.000,186.956 48.700,186.897 48.333 C 186.839 47.967,186.725 47.667,186.645 47.667 C 186.565 47.667,186.500 47.517,186.500 47.333 C 186.500 47.150,186.435 47.000,186.355 47.000 C 186.275 47.000,186.161 46.700,186.103 46.333 C 186.044 45.967,185.922 45.667,185.831 45.667 C 185.741 45.667,185.667 45.479,185.667 45.250 C 185.667 45.021,185.601 44.833,185.521 44.833 C 185.441 44.833,185.328 44.533,185.269 44.167 C 185.211 43.800,185.089 43.500,184.998 43.500 C 184.907 43.500,184.833 43.313,184.833 43.083 C 184.833 42.854,184.763 42.667,184.677 42.667 C 184.591 42.667,184.470 42.329,184.408 41.917 C 184.346 41.504,184.229 41.167,184.148 41.167 C 184.066 41.167,184.000 40.979,184.000 40.750 C 184.000 40.521,183.926 40.333,183.835 40.333 C 183.745 40.333,183.623 40.033,183.564 39.667 C 183.505 39.300,183.392 39.000,183.312 39.000 C 183.232 39.000,183.167 38.887,183.167 38.750 C 183.167 38.612,183.100 38.500,183.019 38.500 C 182.938 38.500,182.821 38.162,182.759 37.750 C 182.697 37.337,182.576 37.000,182.490 37.000 C 182.404 37.000,182.333 36.813,182.333 36.583 C 182.333 36.354,182.268 36.167,182.188 36.167 C 182.108 36.167,181.995 35.867,181.936 35.500 C 181.877 35.133,181.755 34.833,181.665 34.833 C 181.574 34.833,181.500 34.646,181.500 34.417 C 181.500 34.188,181.435 34.000,181.355 34.000 C 181.275 34.000,181.164 33.718,181.109 33.373 C 181.053 33.024,180.859 32.639,180.671 32.503 C 180.485 32.369,180.333 32.171,180.333 32.062 C 180.333 31.722,178.882 30.352,178.392 30.229 C 178.135 30.165,177.805 29.962,177.657 29.780 C 177.386 29.445,173.939 29.214,172.625 29.442 M267.667 29.667 C 267.667 29.758,267.554 29.833,267.417 29.833 C 267.279 29.833,267.167 29.899,267.167 29.979 C 267.167 30.059,266.940 30.170,266.664 30.226 C 266.179 30.323,264.667 31.685,264.667 32.025 C 264.667 32.114,264.592 32.140,264.500 32.083 C 264.408 32.027,264.333 32.135,264.333 32.323 C 264.333 32.512,264.262 32.667,264.174 32.667 C 264.087 32.667,263.966 32.929,263.906 33.249 C 263.846 33.569,263.730 33.789,263.648 33.739 C 263.567 33.688,263.500 33.989,263.500 34.407 C 263.500 34.825,263.425 35.167,263.333 35.167 C 263.223 35.167,263.167 41.972,263.167 55.250 C 263.167 68.528,263.223 75.333,263.333 75.333 C 263.425 75.333,263.500 75.596,263.500 75.917 C 263.500 76.237,263.565 76.500,263.645 76.500 C 263.725 76.500,263.833 76.769,263.887 77.098 C 263.940 77.428,264.127 77.821,264.301 77.973 C 264.476 78.126,264.672 78.419,264.737 78.625 C 264.803 78.831,264.926 79.000,265.012 79.000 C 265.098 79.000,265.332 79.188,265.531 79.417 C 265.730 79.646,265.995 79.833,266.119 79.833 C 266.242 79.833,266.387 79.946,266.440 80.083 C 266.492 80.221,266.671 80.333,266.837 80.333 C 267.003 80.333,267.170 80.427,267.208 80.542 C 267.260 80.697,267.970 80.750,270.000 80.750 C 272.029 80.750,272.739 80.697,272.791 80.542 C 272.830 80.427,273.005 80.333,273.181 80.333 C 273.356 80.333,273.500 80.266,273.500 80.185 C 273.500 80.103,273.683 79.990,273.906 79.934 C 274.129 79.878,274.357 79.687,274.414 79.508 C 274.471 79.330,274.659 79.139,274.833 79.083 C 275.007 79.028,275.196 78.837,275.253 78.658 C 275.309 78.479,275.426 78.333,275.511 78.333 C 275.597 78.333,275.667 78.221,275.667 78.083 C 275.667 77.946,275.740 77.833,275.830 77.833 C 275.920 77.833,276.041 77.646,276.098 77.417 C 276.156 77.188,276.270 77.000,276.351 77.000 C 276.433 77.000,276.500 76.813,276.500 76.583 C 276.500 76.354,276.575 76.167,276.667 76.167 C 276.777 76.167,276.833 69.083,276.833 55.250 C 276.833 41.417,276.777 34.333,276.667 34.333 C 276.575 34.333,276.500 34.146,276.500 33.917 C 276.500 33.688,276.434 33.500,276.354 33.500 C 276.274 33.500,276.163 33.271,276.107 32.991 C 276.051 32.711,275.741 32.234,275.419 31.930 C 275.097 31.626,274.833 31.292,274.833 31.189 C 274.833 31.085,274.755 31.000,274.659 31.000 C 274.563 31.000,274.297 30.813,274.068 30.583 C 273.839 30.354,273.542 30.167,273.409 30.167 C 273.276 30.167,273.167 30.092,273.167 30.000 C 273.167 29.908,272.979 29.833,272.750 29.833 C 272.521 29.833,272.333 29.758,272.333 29.667 C 272.333 29.563,271.444 29.500,270.000 29.500 C 268.556 29.500,267.667 29.563,267.667 29.667 " stroke="none" fill="#54444c" fill-rule="evenodd"></path><path id="path3" d="" stroke="none" fill="#84a0c0" fill-rule="evenodd"></path><path id="path4" d="" stroke="none" fill="#a0806c" fill-rule="evenodd"></path><path id="path5" d="" stroke="none" fill="#54846c" fill-rule="evenodd"></path><path id="path6" d="" stroke="none" fill="#544470" fill-rule="evenodd"></path><path id="path7" d="" stroke="none" fill="#58444c" fill-rule="evenodd"></path><path id="path8" d="" stroke="none" fill="#58444c" fill-rule="evenodd"></path></g></svg>